<?xml version="1.0" standalone="yes"?>

<svg version="1.1" viewBox="0.0 0.0 1046.3910761154855 437.26246719160105" fill="none" stroke="none" stroke-linecap="square" stroke-miterlimit="10" xmlns="http://www.w3.org/2000/svg" xmlns:xlink="http://www.w3.org/1999/xlink"><clipPath id="p.0"><path d="m0 0l1046.3911 0l0 437.26248l-1046.3911 0l0 -437.26248z" clip-rule="nonzero"></path></clipPath><g clip-path="url(#p.0)"><path fill="#000000" fill-opacity="0.0" d="m0 0l1046.3911 0l0 437.26248l-1046.3911 0z" fill-rule="nonzero"></path><path fill="#d0e0e3" d="m94.55643 129.59335l0 0c0 -4.873543 3.9507904 -8.824326 8.824326 -8.824326l184.77657 0c2.340332 0 4.584839 0.92970276 6.2397156 2.584587c1.6549072 1.6548767 2.5845947 3.8993835 2.5845947 6.2397385l0 35.296234c0 4.873535 -3.9507751 8.824326 -8.82431 8.824326l-184.77657 0c-4.873535 0 -8.824326 -3.9507904 -8.824326 -8.824326z" fill-rule="nonzero"></path><path stroke="#76a5af" stroke-width="1.0" stroke-linejoin="round" stroke-linecap="butt" d="m94.55643 129.59335l0 0c0 -4.873543 3.9507904 -8.824326 8.824326 -8.824326l184.77657 0c2.340332 0 4.584839 0.92970276 6.2397156 2.584587c1.6549072 1.6548767 2.5845947 3.8993835 2.5845947 6.2397385l0 35.296234c0 4.873535 -3.9507751 8.824326 -8.82431 8.824326l-184.77657 0c-4.873535 0 -8.824326 -3.9507904 -8.824326 -8.824326z" fill-rule="nonzero"></path><path fill="#000000" d="m152.16356 147.59085l2.140625 0l0 -2.328125l-2.140625 0l0 2.328125zm-3.3125 3.34375q1.59375 -0.734375 2.828125 -2.1875l0.78125 0.6875q0.171875 0.21875 -0.296875 0.171875q-1.125 1.28125 -2.75 2.1875l-0.5625 -0.859375zm8.328125 0.6875q-1.578125 -0.6875 -2.953125 -2.359375l0.640625 -0.640625q1.421875 1.546875 2.921875 2.140625l-0.609375 0.859375zm0.734375 -4.03125l0 0.8125l-9.328125 0l0 -0.8125l2.71875 0l0 -2.328125l-1.890625 0l0 -0.8125l1.890625 0l0 -2.109375l0.8125 0.09375q0.34375 0.03125 0.046875 0.25l0 1.765625l2.140625 0l0 -2.109375l0.8125 0.09375q0.34375 0.03125 0.046875 0.25l0 1.765625l2.15625 0l0 0.8125l-2.15625 0l0 2.328125l2.75 0zm5.796875 4.171875q-1.328125 0 -2.4375 -1.046875q-0.515625 0.609375 -1.59375 1.21875l-0.34375 -1.078125q0.46875 -0.140625 1.453125 -0.78125l0 -2.796875l-1.328125 0l0 -0.8125l2.1875 0l0 3.5625q0.859375 0.78125 2.234375 0.78125l5.328125 0l-0.171875 0.953125l-5.328125 0zm0.609375 -8.34375q1.078125 0.25 1.375 0.390625l0.8125 -0.609375l-3.953125 0l0 -0.8125l4.90625 0l0.203125 -0.125l0.65625 0.46875q0.25 0.21875 -0.21875 0.25l-1.671875 1.125l0.546875 0.25l-0.515625 0.515625l1.9375 0l0 4.90625q0 0.59375 -0.59375 0.59375l-0.953125 0l-0.046875 -0.8125l0.5625 0q0.171875 0 0.171875 -0.171875l0 -0.8125l-1.625 0l0 1.671875l-0.859375 0l0 -1.671875l-1.546875 0l0 1.84375l-0.859375 0l0 -5.546875l3.171875 0q-1.796875 -0.71875 -2.140625 -0.8125l0.640625 -0.640625zm1.59375 2.140625l0 0.828125l1.625 0l0 -0.828125l-1.625 0zm-2.40625 0l0 0.828125l1.546875 0l0 -0.828125l-1.546875 0zm1.546875 1.515625l-1.546875 0l0 0.8125l1.546875 0l0 -0.8125zm2.484375 0l-1.625 0l0 0.8125l1.625 0l0 -0.8125zm-7.0 -4.78125q1.15625 0.734375 1.59375 1.421875l-0.734375 0.78125q-0.6875 -0.859375 -1.46875 -1.46875l0.609375 -0.734375zm14.484375 4.296875q0.078125 3.265625 -2.796875 5.078125l-0.734375 -0.8125q2.53125 -1.375 2.53125 -3.875l0 -1.84375l0.90625 0q0.390625 0.046875 0.09375 0.296875l0 1.125q1.546875 -1.171875 2.359375 -2.28125l-7.0 0.25l-0.09375 -0.984375l7.828125 -0.21875l0.296875 -0.078125l0.640625 0.765625q0.125 0.171875 -0.21875 0.140625q-1.28125 1.671875 -3.09375 3.125l-0.71875 -0.6875zm13.8671875 -0.890625q-1.28125 1.890625 -2.1875 3.09375l-0.8125 -0.5625q0.9375 -1.15625 1.765625 -2.40625l-3.578125 0.640625l0 3.1875q0 0.59375 0.609375 0.59375l3.953125 0l-0.125 0.953125l-4.09375 0q-1.328125 0 -1.328125 -1.375l0 -3.1875l-2.578125 0.515625l-0.34375 -0.984375l2.921875 -0.515625l0 -2.84375l0.90625 0q0.390625 0.09375 0.078125 0.34375l0 2.375l3.875 -0.65625l0.34375 -0.203125l0.765625 0.765625q0.171875 0.21875 -0.171875 0.265625zm8.2109375 0.03125q-0.296875 2.796875 -1.546875 4.046875q-1.25 1.25 -3.265625 1.984375l-0.5625 -0.828125q1.984375 -0.640625 3.09375 -1.765625q1.203125 -1.203125 1.375 -4.078125l0.90625 0.296875q0.390625 0.140625 0 0.34375zm-3.65625 1.546875q-0.515625 -1.15625 -1.03125 -1.921875l0.828125 -0.4375q0.640625 0.8125 1.109375 1.9375l-0.90625 0.421875zm-2.1875 0.65625q-0.515625 -1.203125 -1.078125 -2.03125l0.859375 -0.421875q0.609375 0.8125 1.078125 1.96875l-0.859375 0.484375zm8.890625 -2.109375q2.109375 0.59375 4.265625 1.625l-0.515625 1.0q-2.28125 -1.171875 -3.75 -1.546875l0 4.46875l-0.984375 0l0 -8.59375l0.859375 0q0.515625 0.03125 0.125 0.34375l0 2.703125zm10.7109375 -0.90625q-0.734375 4.296875 -1.765625 5.328125q-0.5625 0.5625 -1.15625 0.5625q-0.6875 0 -1.078125 -0.390625q-1.03125 -1.03125 -1.03125 -2.578125q0 -1.890625 1.328125 -3.21875q1.46875 -1.46875 3.5625 -1.46875q1.890625 0 2.96875 1.078125q1.203125 1.203125 1.203125 2.84375q0 1.75 -1.109375 2.875q-0.734375 0.734375 -2.234375 1.421875l-0.90625 -0.90625q1.5 -0.46875 2.359375 -1.328125q0.8125 -0.828125 0.8125 -1.984375q0 -1.375 -0.890625 -2.28125q-0.90625 -0.890625 -2.84375 -0.8125l0.78125 0.390625q0.515625 0.21875 0 0.46875zm-1.0 -0.8125q-1.109375 0.25 -1.921875 1.078125q-1.125 1.109375 -1.125 2.75q0 0.984375 0.640625 1.625q0.140625 0.125 0.390625 0.125q0.265625 0 0.5625 -0.296875q0.984375 -0.984375 1.453125 -5.28125zm14.140625 6.140625l-0.984375 0l0 -0.46875l-4.765625 0l0 0.6875l-1.0 0l0 -6.703125l6.75 0l0 6.484375zm-5.75 -5.546875l0 4.125l4.765625 0l0 -4.125l-4.765625 0zm7.683609 2.75l0 -0.9375l9.578125 0l0 0.9375l-9.578125 0zm16.070312 1.0q-2.28125 -1.171875 -3.734375 -1.546875l0 4.46875l-0.984375 0l0 -8.59375l0.859375 0q0.515625 0.03125 0.125 0.34375l0 2.703125q2.109375 0.59375 4.25 1.625l-0.515625 1.0zm-0.078125 -3.78125q-0.734375 -0.90625 -1.46875 -1.46875l0.5625 -0.421875q0.734375 0.546875 1.453125 1.453125l-0.546875 0.4375zm1.03125 -0.828125q-0.5625 -0.71875 -1.421875 -1.40625l0.5625 -0.4375q0.71875 0.515625 1.40625 1.421875l-0.546875 0.421875z" fill-rule="nonzero"></path><path fill="#d0e0e3" d="m94.55643 226.9608l0 0c0 -4.873535 3.9507904 -8.82431 8.824326 -8.82431l184.77657 0c2.340332 0 4.584839 0.92970276 6.2397156 2.5845795c1.6549072 1.6548767 2.5845947 3.8993835 2.5845947 6.239731l0 35.29625c0 4.873535 -3.9507751 8.82431 -8.82431 8.82431l-184.77657 0c-4.873535 0 -8.824326 -3.9507751 -8.824326 -8.82431z" fill-rule="nonzero"></path><path stroke="#76a5af" stroke-width="1.0" stroke-linejoin="round" stroke-linecap="butt" d="m94.55643 226.9608l0 0c0 -4.873535 3.9507904 -8.82431 8.824326 -8.82431l184.77657 0c2.340332 0 4.584839 0.92970276 6.2397156 2.5845795c1.6549072 1.6548767 2.5845947 3.8993835 2.5845947 6.239731l0 35.29625c0 4.873535 -3.9507751 8.82431 -8.82431 8.82431l-184.77657 0c-4.873535 0 -8.824326 -3.9507751 -8.824326 -8.82431z" fill-rule="nonzero"></path><path fill="#000000" d="m182.17723 240.34892q-0.171875 0.515625 -0.4375 1.0l2.875 0l0.484375 -0.171875l0.546875 0.546875q0.171875 0.21875 -0.171875 0.34375q-0.34375 1.71875 -1.03125 3.140625l1.03125 0.6875l-0.640625 0.953125l-0.9375 -0.6875q-1.25 1.796875 -3.578125 2.96875l-0.984375 -0.734375q2.578125 -1.078125 3.703125 -2.84375q-1.078125 -0.6875 -2.109375 -1.25l0.515625 -0.765625q1.328125 0.59375 2.1875 1.109375q0.640625 -1.328125 0.78125 -2.359375l-3.140625 0q-0.8125 1.46875 -2.015625 2.671875l-0.828125 -0.5625q2.203125 -2.28125 2.890625 -4.8125l1.03125 0.421875q0.34375 0.171875 -0.171875 0.34375zm4.84375 4.859375q4.515625 -1.890625 6.84375 -5.328125l0.8125 0.6875q0.34375 0.265625 -0.296875 0.390625q-0.828125 1.078125 -2.109375 2.1875l0 5.84375l-0.984375 0l0 -5.03125q-1.515625 1.171875 -3.53125 2.109375l-0.734375 -0.859375zm10.785156 -2.015625q2.109375 0.59375 4.265625 1.625l-0.515625 1.0q-2.28125 -1.171875 -3.75 -1.546875l0 4.46875l-0.984375 0l0 -8.59375l0.859375 0q0.515625 0.03125 0.125 0.34375l0 2.703125zm11.2265625 3.90625q1.890625 -0.734375 3.46875 -2.921875l0.609375 0.8125q-1.640625 2.234375 -4.125 3.234375l-0.34375 0.171875l-0.6875 -0.515625l0.078125 -0.21875l0 -6.921875l0.90625 0q0.390625 0.09375 0.09375 0.34375l0 6.015625zm-5.765625 1.15625q2.15625 -2.0625 2.15625 -5.109375l0 -1.9375l0.890625 0q0.390625 0.09375 0.09375 0.34375l0 1.546875q0 3.609375 -2.28125 5.71875l-0.859375 -0.5625z" fill-rule="nonzero"></path><path fill="#d0e0e3" d="m94.55643 337.13928l0 0c0 -4.873535 3.9507904 -8.82431 8.824326 -8.82431l184.77657 0c2.340332 0 4.584839 0.9296875 6.2397156 2.5845642c1.6549072 1.6548767 2.5845947 3.8993835 2.5845947 6.239746l0 35.296234c0 4.873535 -3.9507751 8.824341 -8.82431 8.824341l-184.77657 0c-4.873535 0 -8.824326 -3.9508057 -8.824326 -8.824341z" fill-rule="nonzero"></path><path stroke="#76a5af" stroke-width="1.0" stroke-linejoin="round" stroke-linecap="butt" d="m94.55643 337.13928l0 0c0 -4.873535 3.9507904 -8.82431 8.824326 -8.82431l184.77657 0c2.340332 0 4.584839 0.9296875 6.2397156 2.5845642c1.6549072 1.6548767 2.5845947 3.8993835 2.5845947 6.239746l0 35.296234c0 4.873535 -3.9507751 8.824341 -8.82431 8.824341l-184.77657 0c-4.873535 0 -8.824326 -3.9508057 -8.824326 -8.824341z" fill-rule="nonzero"></path><path fill="#000000" d="m159.64012 354.13678q0.078125 3.265625 -2.796875 5.078125l-0.734375 -0.8125q2.53125 -1.375 2.53125 -3.875l0 -1.84375l0.90625 0q0.390625 0.046875 0.09375 0.296875l0 1.125q1.546875 -1.171875 2.359375 -2.28125l-7.0 0.25l-0.09375 -0.984375l7.828125 -0.21875l0.296875 -0.078125l0.640625 0.765625q0.125 0.171875 -0.21875 0.140625q-1.28125 1.671875 -3.09375 3.125l-0.71875 -0.6875zm5.1484375 0.859375l0 -0.9375l9.578125 0l0 0.9375l-9.578125 0zm10.5703125 0q1.890625 -1.921875 2.40625 -4.890625l1.078125 0.25q0.34375 0.09375 -0.09375 0.34375q-0.25 0.953125 -0.640625 1.859375l6.359375 0l0 0.9375l-2.484375 0q-0.390625 3.359375 -3.234375 5.8125l-0.984375 -0.5625q2.96875 -2.375 3.140625 -5.25l-3.265625 0q-0.5625 1.125 -1.421875 1.984375l-0.859375 -0.484375zm10.2265625 0l0 -0.9375l9.578125 0l0 0.9375l-9.578125 0zm16.070312 1.0q-2.28125 -1.171875 -3.734375 -1.546875l0 4.46875l-0.984375 0l0 -8.59375l0.859375 0q0.515625 0.03125 0.125 0.34375l0 2.703125q2.109375 0.59375 4.25 1.625l-0.515625 1.0zm-0.078125 -3.78125q-0.734375 -0.90625 -1.46875 -1.46875l0.5625 -0.421875q0.734375 0.546875 1.453125 1.453125l-0.546875 0.4375zm1.03125 -0.828125q-0.5625 -0.71875 -1.421875 -1.40625l0.5625 -0.4375q0.71875 0.515625 1.40625 1.421875l-0.546875 0.421875zm9.621094 7.015625l-3.734375 0q-1.078125 0 -1.078125 -1.125l0 -2.3125l-3.4375 0l0 -0.953125l3.4375 0l0 -1.96875l-2.625 0l0 -0.953125l6.828125 0l0 0.953125l-3.21875 0l0 1.96875l4.296875 0l0 0.953125l-4.296875 0l0 1.96875q0 0.515625 0.46875 0.515625l3.40625 0l-0.046875 0.953125zm1.5859375 -3.40625l0 -0.9375l9.578125 0l0 0.9375l-9.578125 0zm16.070328 1.0q-2.28125 -1.171875 -3.734375 -1.546875l0 4.46875l-0.984375 0l0 -8.59375l0.859375 0q0.515625 0.03125 0.125 0.34375l0 2.703125q2.109375 0.59375 4.25 1.625l-0.515625 1.0zm-0.078125 -3.78125q-0.734375 -0.90625 -1.46875 -1.46875l0.5625 -0.421875q0.734375 0.546875 1.453125 1.453125l-0.546875 0.4375zm1.03125 -0.828125q-0.5625 -0.71875 -1.421875 -1.40625l0.5625 -0.4375q0.71875 0.515625 1.40625 1.421875l-0.546875 0.421875zm3.9023438 2.625l1.765625 -1.109375l0.421875 0.765625l-1.84375 0.953125l1.84375 0.9375l-0.421875 0.78125l-1.765625 -1.125l0.09375 2.1875l-0.859375 0l0.078125 -2.1875l-1.765625 1.125l-0.421875 -0.78125l1.84375 -0.9375l-1.84375 -0.953125l0.421875 -0.765625l1.765625 1.109375l-0.078125 -2.0625l0.859375 0l-0.09375 2.0625z" fill-rule="nonzero"></path><path fill="#d0e0e3" d="m332.84778 337.13928l0 0c0 -4.873535 3.9507751 -8.82431 8.82431 -8.82431l184.77658 0c2.340332 0 4.584839 0.9296875 6.239746 2.5845642c1.6548462 1.6548767 2.5845337 3.8993835 2.5845337 6.239746l0 35.296234c0 4.873535 -3.9507446 8.824341 -8.82428 8.824341l-184.77658 0c-4.873535 0 -8.82431 -3.9508057 -8.82431 -8.824341z" fill-rule="nonzero"></path><path stroke="#76a5af" stroke-width="1.0" stroke-linejoin="round" stroke-linecap="butt" d="m332.84778 337.13928l0 0c0 -4.873535 3.9507751 -8.82431 8.82431 -8.82431l184.77658 0c2.340332 0 4.584839 0.9296875 6.239746 2.5845642c1.6548462 1.6548767 2.5845337 3.8993835 2.5845337 6.239746l0 35.296234c0 4.873535 -3.9507446 8.824341 -8.82428 8.824341l-184.77658 0c-4.873535 0 -8.82431 -3.9508057 -8.82431 -8.824341z" fill-rule="nonzero"></path><path fill="#000000" d="m416.28888 358.91803q-1.375 -0.78125 -2.1875 -2.0625l0 2.625l-0.734375 0l0 -2.5q-0.640625 1.25 -2.484375 2.28125l-0.46875 -0.859375q1.75 -0.78125 2.828125 -2.40625l-1.796875 0l0 -3.609375l1.921875 0l0 -0.78125l-2.3125 0l0 -0.6875l2.3125 0l0 -1.328125l0.6875 0q0.34375 0.046875 0.046875 0.25l0 1.078125l2.359375 0l0 0.6875l-2.359375 0l0 0.78125l1.984375 0l0 3.609375l-1.8125 0q0.6875 1.15625 2.40625 2.09375l-0.390625 0.828125zm-6.09375 -1.125q-0.125 -0.984375 -0.390625 -1.890625l0.6875 -0.25q0.296875 0.640625 0.46875 1.84375l-0.765625 0.296875zm-3.265625 0.5625q0.34375 -1.328125 0.390625 -2.578125l0.8125 0.078125q0.125 0.140625 -0.09375 0.265625q0 1.28125 -0.421875 2.53125l-0.6875 -0.296875zm3.21875 -4.078125l-0.46875 -0.734375l0.59375 -0.390625q0.609375 0.8125 1.078125 1.765625l-0.6875 0.421875l-0.25 -0.46875l-1.0 0.09375l0 4.546875l-0.859375 0l0 -4.46875l-1.453125 0.09375q-0.046875 0.296875 -0.21875 0.125l-0.125 -0.90625l0.640625 0l0.90625 -1.078125l-1.46875 -1.203125l0.515625 -0.640625l0.3125 0.21875l1.15625 -1.9375l0.6875 0.4375q0.171875 0.203125 -0.171875 0.203125l-1.125 1.71875l0.609375 0.515625l1.15625 -1.578125l0.609375 0.421875q0.296875 0.265625 -0.140625 0.265625l-2.140625 2.65625l1.84375 -0.078125zm5.203125 -1.203125l-1.25 0l0 0.8125l1.25 0l0 -0.8125zm0 1.5l-1.25 0l0 0.734375l1.25 0l0 -0.734375zm-1.984375 0l-1.203125 0l0 0.734375l1.203125 0l0 -0.734375zm-1.203125 -1.5l0 0.8125l1.203125 0l0 -0.8125l-1.203125 0zm12.421875 -0.4375q-0.5625 -0.515625 -1.25 -0.90625l0.5625 -0.6875q0.859375 0.390625 1.25 0.90625l-0.5625 0.6875zm-6.1875 1.546875q-0.046875 0.296875 -0.21875 0.125l-0.25 -0.9375q1.796875 -0.21875 3.34375 -0.78125l0 0.734375q-1.375 0.5625 -2.875 0.859375zm1.671875 -1.453125q-0.59375 -0.5625 -1.328125 -1.0l0.609375 -0.640625q0.6875 0.34375 1.28125 0.90625l-0.5625 0.734375zm3.09375 1.15625l-0.125 -0.640625q1.125 -0.09375 2.921875 -0.734375l0 0.734375q-1.59375 0.640625 -2.796875 0.859375l-0.25 0.640625l3.09375 0l0 4.59375l-0.859375 0l0 -0.203125l-4.90625 0l0 0.296875l-0.859375 0l0 -4.6875l2.71875 0l0.171875 -0.78125l-0.65625 0l0 -3.21875l-3.4375 0l0 -0.8125l4.296875 0l0 3.90625l0.6875 0.046875zm3.953125 0.171875l-0.859375 0l0 -3.3125l-3.34375 0l0 -0.8125l4.203125 0l0 4.125zm-6.875 4.25l4.90625 0l0 -0.90625l-4.90625 0l0 0.90625zm4.90625 -1.71875l0 -1.03125l-4.90625 0l0 1.03125l4.90625 0zm11.859375 1.8125l-3.734375 0q-1.078125 0 -1.078125 -1.125l0 -2.3125l-3.4375 0l0 -0.953125l3.4375 0l0 -1.96875l-2.625 0l0 -0.953125l6.828125 0l0 0.953125l-3.21875 0l0 1.96875l4.296875 0l0 0.953125l-4.296875 0l0 1.96875q0 0.515625 0.46875 0.515625l3.40625 0l-0.046875 0.953125zm1.5859375 -3.40625l0 -0.9375l9.578125 0l0 0.9375l-9.578125 0zm16.070312 1.0q-2.28125 -1.171875 -3.734375 -1.546875l0 4.46875l-0.984375 0l0 -8.59375l0.859375 0q0.515625 0.03125 0.125 0.34375l0 2.703125q2.109375 0.59375 4.25 1.625l-0.515625 1.0zm-0.078125 -3.78125q-0.734375 -0.90625 -1.46875 -1.46875l0.5625 -0.421875q0.734375 0.546875 1.453125 1.453125l-0.546875 0.4375zm1.03125 -0.828125q-0.5625 -0.71875 -1.421875 -1.40625l0.5625 -0.4375q0.71875 0.515625 1.40625 1.421875l-0.546875 0.421875zm3.9023438 2.625l1.765625 -1.109375l0.421875 0.765625l-1.84375 0.953125l1.84375 0.9375l-0.421875 0.78125l-1.765625 -1.125l0.09375 2.1875l-0.859375 0l0.078125 -2.1875l-1.765625 1.125l-0.421875 -0.78125l1.84375 -0.9375l-1.84375 -0.953125l0.421875 -0.765625l1.765625 1.109375l-0.078125 -2.0625l0.859375 0l-0.09375 2.0625z" fill-rule="nonzero"></path><path fill="#d0e0e3" d="m801.7428 337.13928l0 0c0 -4.873535 3.9507446 -8.82431 8.82428 -8.82431l184.77661 0c2.340332 0 4.584839 0.9296875 6.239685 2.5845642c1.6549072 1.6548767 2.5845947 3.8993835 2.5845947 6.239746l0 35.296234c0 4.873535 -3.9507446 8.824341 -8.82428 8.824341l-184.77661 0c-4.873535 0 -8.82428 -3.9508057 -8.82428 -8.824341z" fill-rule="nonzero"></path><path stroke="#76a5af" stroke-width="1.0" stroke-linejoin="round" stroke-linecap="butt" d="m801.7428 337.13928l0 0c0 -4.873535 3.9507446 -8.82431 8.82428 -8.82431l184.77661 0c2.340332 0 4.584839 0.9296875 6.239685 2.5845642c1.6549072 1.6548767 2.5845947 3.8993835 2.5845947 6.239746l0 35.296234c0 4.873535 -3.9507446 8.824341 -8.82428 8.824341l-184.77661 0c-4.873535 0 -8.82428 -3.9508057 -8.82428 -8.824341z" fill-rule="nonzero"></path><path fill="#000000" d="m880.9085 358.57428q4.171875 -1.078125 4.6875 -4.515625l-6.53125 0l0 -0.953125l6.578125 0l0.390625 -0.125l0.765625 0.46875q0.265625 0.21875 -0.078125 0.390625q-0.6875 4.296875 -5.03125 5.59375l-0.78125 -0.859375zm4.859375 -6.96875l-5.921875 0l0 -0.9375l5.921875 0l0 0.9375zm10.613281 1.9375q-2.28125 4.71875 -7.640625 4.984375q-0.21875 0.5625 -0.4375 0.09375l-0.34375 -1.125q5.59375 -0.125 7.515625 -4.59375l0.90625 0.640625zm-6.0625 0q-1.15625 -1.078125 -2.1875 -1.765625l0.734375 -0.90625q0.90625 0.5625 2.28125 1.859375l-0.828125 0.8125zm16.636719 1.625l-4.0 0.4375l0.8125 3.484375l-0.9375 0.21875l-0.8125 -3.578125l-4.390625 0.515625l-0.125 -0.90625l4.296875 -0.46875l-0.4375 -2.015625l-2.921875 0.34375l-0.171875 -0.90625l2.84375 -0.296875l-0.4375 -1.984375l0.90625 -0.171875q0.390625 -0.03125 0.125 0.3125l0.34375 1.71875l3.140625 -0.4375l0.171875 0.90625l-3.046875 0.390625l0.421875 2.015625l4.046875 -0.46875l0.171875 0.890625zm9.4921875 -1.625q-2.28125 4.71875 -7.640625 4.984375q-0.21875 0.5625 -0.4375 0.09375l-0.34375 -1.125q5.59375 -0.125 7.515625 -4.59375l0.90625 0.640625zm-6.0625 0q-1.15625 -1.078125 -2.1875 -1.765625l0.734375 -0.90625q0.90625 0.5625 2.28125 1.859375l-0.828125 0.8125zm14.621094 -0.90625q-0.828125 4.6875 -5.375 6.703125l-0.78125 -0.8125q4.21875 -1.71875 5.078125 -5.9375l-3.4375 0q-0.984375 1.640625 -2.0625 2.625l-0.859375 -0.5625q2.234375 -2.015625 2.875 -4.71875l0.984375 0.34375q0.265625 0.125 -0.078125 0.25q-0.171875 0.5625 -0.46875 1.125l3.09375 0l0.375 -0.21875l0.78125 0.78125q0.296875 0.296875 -0.125 0.421875zm0.25 -1.03125q-0.6875 -0.984375 -1.328125 -1.5l0.5625 -0.46875q0.71875 0.640625 1.375 1.5l-0.609375 0.46875zm1.25 -0.515625q-0.6875 -0.859375 -1.25 -1.375l0.515625 -0.515625q0.640625 0.609375 1.25 1.375l-0.515625 0.515625z" fill-rule="nonzero"></path><path fill="#d0e0e3" d="m563.4514 337.13928l0 0c0 -4.873535 3.9508057 -8.82431 8.824341 -8.82431l184.77655 0c2.340393 0 4.5849 0.9296875 6.239746 2.5845642c1.6549072 1.6548767 2.5845947 3.8993835 2.5845947 6.239746l0 35.296234c0 4.873535 -3.9508057 8.824341 -8.824341 8.824341l-184.77655 0c-4.873535 0 -8.824341 -3.9508057 -8.824341 -8.824341z" fill-rule="nonzero"></path><path stroke="#76a5af" stroke-width="1.0" stroke-linejoin="round" stroke-linecap="butt" d="m563.4514 337.13928l0 0c0 -4.873535 3.9508057 -8.82431 8.824341 -8.82431l184.77655 0c2.340393 0 4.5849 0.9296875 6.239746 2.5845642c1.6549072 1.6548767 2.5845947 3.8993835 2.5845947 6.239746l0 35.296234c0 4.873535 -3.9508057 8.824341 -8.824341 8.824341l-184.77655 0c-4.873535 0 -8.824341 -3.9508057 -8.824341 -8.824341z" fill-rule="nonzero"></path><path fill="#000000" d="m648.9668 352.98053l-5.984375 0l0 -0.9375l6.96875 0l0 6.140625l-0.984375 0l0 -0.46875l-5.984375 0l0 -0.953125l5.984375 0l0 -3.78125zm11.078125 0.5625q-2.28125 4.71875 -7.640625 4.984375q-0.21875 0.5625 -0.4375 0.09375l-0.34375 -1.125q5.59375 -0.125 7.515625 -4.59375l0.90625 0.640625zm-6.0625 0q-1.15625 -1.078125 -2.1875 -1.765625l0.734375 -0.90625q0.90625 0.5625 2.28125 1.859375l-0.828125 0.8125zm7.9960938 4.296875q5.375 -1.25 5.625 -5.71875l-6.4375 0l0 -0.9375l6.53125 0l0.59375 -0.140625l0.484375 0.4375q-0.171875 5.71875 -6.015625 7.3125l-0.78125 -0.953125zm11.9453125 1.546875l-0.859375 0l0 -4.0q-0.9375 0.734375 -2.828125 1.671875l-0.609375 -0.71875q4.078125 -1.984375 5.59375 -4.34375l0.71875 0.5625q0.265625 0.203125 -0.171875 0.296875q-0.71875 0.90625 -1.84375 1.84375l0 4.6875zm10.707031 -6.75q-0.828125 4.6875 -5.375 6.703125l-0.78125 -0.8125q4.21875 -1.71875 5.078125 -5.9375l-3.4375 0q-0.984375 1.640625 -2.0625 2.625l-0.859375 -0.5625q2.234375 -2.015625 2.875 -4.71875l0.984375 0.34375q0.265625 0.125 -0.078125 0.25q-0.171875 0.5625 -0.46875 1.125l3.09375 0l0.375 -0.21875l0.78125 0.78125q0.296875 0.296875 -0.125 0.421875zm0.25 -1.03125q-0.6875 -0.984375 -1.328125 -1.5l0.5625 -0.46875q0.71875 0.640625 1.375 1.5l-0.609375 0.46875zm1.25 -0.515625q-0.6875 -0.859375 -1.25 -1.375l0.515625 -0.515625q0.640625 0.609375 1.25 1.375l-0.515625 0.515625z" fill-rule="nonzero"></path><path fill="#d0e0e3" d="m134.93701 53.165356l0 0c0 -12.80257 27.236588 -23.181105 60.83464 -23.181105l0 0c33.598053 0 60.83464 10.378534 60.83464 23.181105l0 0c0 12.80257 -27.236588 23.181103 -60.83464 23.181103l0 0c-33.598053 0 -60.83464 -10.378532 -60.83464 -23.181103z" fill-rule="nonzero"></path><path stroke="#76a5af" stroke-width="1.0" stroke-linejoin="round" stroke-linecap="butt" d="m134.93701 53.165356l0 0c0 -12.80257 27.236588 -23.181105 60.83464 -23.181105l0 0c33.598053 0 60.83464 10.378534 60.83464 23.181105l0 0c0 12.80257 -27.236588 23.181103 -60.83464 23.181103l0 0c-33.598053 0 -60.83464 -10.378532 -60.83464 -23.181103z" fill-rule="nonzero"></path><path fill="#000000" d="m183.51189 52.999104q1.84375 1.40625 3.640625 3.265625l-0.859375 0.734375q-1.796875 -1.90625 -3.46875 -3.1875q-1.6875 1.796875 -3.828125 3.21875l-0.8125 -0.734375q4.546875 -2.953125 5.84375 -5.921875l-4.6875 0.296875l-0.125 -1.03125l4.984375 -0.21875l0.515625 -0.125l0.6875 0.6875q0.296875 0.296875 -0.171875 0.390625q-0.828125 1.421875 -1.71875 2.625zm8.378906 -4.09375q-0.171875 0.515625 -0.4375 1.0l2.875 0l0.484375 -0.171875l0.546875 0.546875q0.171875 0.21875 -0.171875 0.34375q-0.34375 1.71875 -1.03125 3.140625l1.03125 0.6875l-0.640625 0.953125l-0.9375 -0.6875q-1.25 1.796875 -3.578125 2.96875l-0.984375 -0.734375q2.578125 -1.078125 3.703125 -2.84375q-1.078125 -0.6875 -2.109375 -1.25l0.515625 -0.765625q1.328125 0.59375 2.1875 1.109375q0.640625 -1.328125 0.78125 -2.359375l-3.140625 0q-0.8125 1.46875 -2.015625 2.671875l-0.828125 -0.5625q2.203125 -2.28125 2.890625 -4.8125l1.03125 0.421875q0.34375 0.171875 -0.171875 0.34375zm4.71875 4.46875l0 -0.9375l9.578125 0l0 0.9375l-9.578125 0zm12.4140625 -1.625q2.109375 0.59375 4.265625 1.625l-0.515625 1.0q-2.28125 -1.171875 -3.75 -1.546875l0 4.46875l-0.984375 0l0 -8.59375l0.859375 0q0.515625 0.03125 0.125 0.34375l0 2.703125z" fill-rule="nonzero"></path><path fill="#000000" fill-opacity="0.0" d="m195.77165 76.34646l0 22.211388l0.06298828 0l0 22.19806" fill-rule="nonzero"></path><path stroke="#000000" stroke-width="1.0" stroke-linejoin="round" stroke-linecap="butt" d="m195.77165 76.34646l0 22.211388l0.06298828 0l0 16.19806" fill-rule="evenodd"></path><path fill="#000000" stroke="#000000" stroke-width="1.0" stroke-linecap="butt" d="m194.1829 114.755905l1.6517334 4.538101l1.6517334 -4.538101z" fill-rule="evenodd"></path><path fill="#000000" fill-opacity="0.0" d="m195.76903 173.71391l0 22.21138l0.06300354 0l0 22.19806" fill-rule="nonzero"></path><path stroke="#000000" stroke-width="1.0" stroke-linejoin="round" stroke-linecap="butt" d="m195.76903 173.71391l0 22.21138l0.06298828 0l0 16.19806" fill-rule="evenodd"></path><path fill="#000000" stroke="#000000" stroke-width="1.0" stroke-linecap="butt" d="m194.18028 212.12337l1.6517334 4.538086l1.6517334 -4.538086z" fill-rule="evenodd"></path><path fill="#000000" fill-opacity="0.0" d="m195.76903 271.08136l0 28.617035l0.06300354 0l0 28.611328" fill-rule="nonzero"></path><path stroke="#000000" stroke-width="1.0" stroke-linejoin="round" stroke-linecap="butt" d="m195.76903 271.08136l0 28.617035l0.06298828 0l0 22.611328" fill-rule="evenodd"></path><path fill="#000000" stroke="#000000" stroke-width="1.0" stroke-linecap="butt" d="m194.18028 322.30972l1.6517334 4.538086l1.6517334 -4.538086z" fill-rule="evenodd"></path><path fill="#000000" fill-opacity="0.0" d="m195.76903 271.08136l0 28.617035l238.29921 0l0 28.611328" fill-rule="nonzero"></path><path stroke="#000000" stroke-width="1.0" stroke-linejoin="round" stroke-linecap="butt" d="m195.76903 271.08136l0 28.617035l238.29921 0l0 22.611328" fill-rule="evenodd"></path><path fill="#000000" stroke="#000000" stroke-width="1.0" stroke-linecap="butt" d="m432.4165 322.30972l1.6517334 4.538086l1.6517334 -4.538086z" fill-rule="evenodd"></path><path fill="#000000" fill-opacity="0.0" d="m195.76903 271.08136l0 28.617035l468.8819 0l0 28.611328" fill-rule="nonzero"></path><path stroke="#000000" stroke-width="1.0" stroke-linejoin="round" stroke-linecap="butt" d="m195.76903 271.08136l0 28.617035l468.8819 0l0 22.611328" fill-rule="evenodd"></path><path fill="#000000" stroke="#000000" stroke-width="1.0" stroke-linecap="butt" d="m662.9992 322.30972l1.6517334 4.538086l1.6517334 -4.538086z" fill-rule="evenodd"></path><path fill="#000000" fill-opacity="0.0" d="m195.76903 271.08136l0 28.617035l707.1811 0l0 28.611328" fill-rule="nonzero"></path><path stroke="#000000" stroke-width="1.0" stroke-linejoin="round" stroke-linecap="butt" d="m195.76903 271.08136l0 28.617035l707.1811 0l0 22.611328" fill-rule="evenodd"></path><path fill="#000000" stroke="#000000" stroke-width="1.0" stroke-linecap="butt" d="m901.2984 322.30972l1.6517334 4.538086l1.6517334 -4.538086z" fill-rule="evenodd"></path><path fill="#000000" fill-opacity="0.0" d="m195.76903 381.25986l0 24.99945l-126.21251 0l0 -161.66089l24.984169 0" fill-rule="nonzero"></path><path stroke="#000000" stroke-width="1.0" stroke-linejoin="round" stroke-linecap="butt" d="m195.76903 381.25986l0 24.99945l-126.21251 0l0 -161.66089l18.984161 0" fill-rule="evenodd"></path><path fill="#000000" stroke="#000000" stroke-width="1.0" stroke-linecap="butt" d="m88.54068 246.25015l4.538101 -1.6517334l-4.538101 -1.6517334z" fill-rule="evenodd"></path><path fill="#000000" fill-opacity="0.0" d="m434.06036 381.25986l0 24.99945l-364.50333 0l0 -161.66089l25.007278 0" fill-rule="nonzero"></path><path stroke="#000000" stroke-width="1.0" stroke-linejoin="round" stroke-linecap="butt" d="m434.06036 381.25986l0 24.99945l-364.50336 0l0 -161.66089l19.007286 0" fill-rule="evenodd"></path><path fill="#000000" stroke="#000000" stroke-width="1.0" stroke-linecap="butt" d="m88.56431 246.25015l4.5380936 -1.6517334l-4.5380936 -1.6517334z" fill-rule="evenodd"></path><path fill="#000000" fill-opacity="0.0" d="m664.66406 381.25986l0 24.99945l-595.1096 0l0 -161.66089l24.999336 0" fill-rule="nonzero"></path><path stroke="#000000" stroke-width="1.0" stroke-linejoin="round" stroke-linecap="butt" d="m664.66406 381.25986l0 24.99945l-595.1096 0l0 -161.66089l18.999329 0" fill-rule="evenodd"></path><path fill="#000000" stroke="#000000" stroke-width="1.0" stroke-linecap="butt" d="m88.5538 246.25015l4.538101 -1.6517334l-4.538101 -1.6517334z" fill-rule="evenodd"></path><path fill="#000000" fill-opacity="0.0" d="m902.9554 381.25986l0 24.99945l-833.3974 0l0 -161.66089l24.987938 0" fill-rule="nonzero"></path><path stroke="#000000" stroke-width="1.0" stroke-linejoin="round" stroke-linecap="butt" d="m902.9554 381.25986l0 24.99945l-833.3974 0l0 -161.66089l18.98793 0" fill-rule="evenodd"></path><path fill="#000000" stroke="#000000" stroke-width="1.0" stroke-linecap="butt" d="m88.54593 246.25015l4.538101 -1.6517334l-4.538101 -1.6517334z" fill-rule="evenodd"></path></g></svg>

