<?xml version="1.0" standalone="yes"?>

<svg version="1.1" viewBox="0.0 0.0 1070.272965879265 550.1601049868766" fill="none" stroke="none" stroke-linecap="square" stroke-miterlimit="10" xmlns="http://www.w3.org/2000/svg" xmlns:xlink="http://www.w3.org/1999/xlink"><clipPath id="p.0"><path d="m0 0l1070.273 0l0 550.1601l-1070.273 0l0 -550.1601z" clip-rule="nonzero"></path></clipPath><g clip-path="url(#p.0)"><path fill="#000000" fill-opacity="0.0" d="m0 0l1070.273 0l0 550.1601l-1070.273 0z" fill-rule="nonzero"></path><path fill="#d0e0e3" d="m74.296585 53.165356l0 0c0 -12.80257 27.236603 -23.181105 60.83464 -23.181105l0 0c33.598053 0 60.834656 10.378534 60.834656 23.181105l0 0c0 12.80257 -27.236603 23.181103 -60.834656 23.181103l0 0c-33.598038 0 -60.83464 -10.378532 -60.83464 -23.181103z" fill-rule="nonzero"></path><path stroke="#76a5af" stroke-width="1.0" stroke-linejoin="round" stroke-linecap="butt" d="m74.296585 53.165356l0 0c0 -12.80257 27.236603 -23.181105 60.83464 -23.181105l0 0c33.598053 0 60.834656 10.378534 60.834656 23.181105l0 0c0 12.80257 -27.236603 23.181103 -60.834656 23.181103l0 0c-33.598038 0 -60.83464 -10.378532 -60.83464 -23.181103z" fill-rule="nonzero"></path><path fill="#000000" d="m107.28748 52.564102l1.28125 -0.8125l0.3125 0.5625l-1.34375 0.6875l1.34375 0.6875l-0.3125 0.5625l-1.28125 -0.8125l0.0625 1.59375l-0.625 0l0.0625 -1.59375l-1.28125 0.8125l-0.3125 -0.5625l1.34375 -0.6875l-1.34375 -0.6875l0.3125 -0.5625l1.28125 0.8125l-0.0625 -1.5l0.625 0l-0.0625 1.5zm5.5625 0.09375q0.0625 2.375 -2.03125 3.6875l-0.53125 -0.59375q1.84375 -1.0 1.84375 -2.8125l0 -1.34375l0.65625 0q0.28125 0.03125 0.0625 0.21875l0 0.8125q1.125 -0.84375 1.71875 -1.65625l-5.09375 0.1875l-0.0625 -0.71875l5.6875 -0.15625l0.21875 -0.0625l0.46875 0.5625q0.09375 0.125 -0.15625 0.09375q-0.9375 1.21875 -2.25 2.28125l-0.53125 -0.5zm3.75 0.625l0 -0.6875l6.96875 0l0 0.6875l-6.96875 0zm7.6875 0q1.375 -1.40625 1.75 -3.5625l0.78125 0.1875q0.25 0.0625 -0.0625 0.25q-0.1875 0.6875 -0.46875 1.34375l4.6249924 0l0 0.6875l-1.8125 0q-0.28125 2.4375 -2.3437424 4.21875l-0.71875 -0.40625q2.1562424 -1.71875 2.2812424 -3.8125l-2.3749924 0q-0.40625 0.8125 -1.03125 1.4375l-0.625 -0.34375zm7.4374924 0l0 -0.6875l6.96875 0l0 0.6875l-6.96875 0zm11.6875 0.71875q-1.65625 -0.84375 -2.71875 -1.125l0 3.25l-0.71875 0l0 -6.25l0.625 0q0.375 0.03125 0.09375 0.25l0 1.96875q1.53125 0.4375 3.09375 1.1875l-0.375 0.71875zm-0.0625 -2.75q-0.53125 -0.65625 -1.0625 -1.0625l0.40625 -0.3125q0.53125 0.40625 1.0625 1.0625l-0.40625 0.3125zm0.75 -0.59375q-0.40625 -0.53125 -1.03125 -1.03125l0.40625 -0.3125q0.53125 0.375 1.03125 1.03125l-0.40625 0.3125zm7.0 5.09375l-2.71875 0q-0.78125 0 -0.78125 -0.8125l0 -1.6875l-2.5 0l0 -0.6875l2.5 0l0 -1.4375l-1.90625 0l0 -0.6875l4.96875 0l0 0.6875l-2.34375 0l0 1.4375l3.125 0l0 0.6875l-3.125 0l0 1.4375q0 0.375 0.34375 0.375l2.46875 0l-0.03125 0.6875zm1.15625 -2.46875l0 -0.6875l6.96875 0l0 0.6875l-6.96875 0zm11.6875 0.71875q-1.65625 -0.84375 -2.71875 -1.125l0 3.25l-0.71875 0l0 -6.25l0.625 0q0.375 0.03125 0.09375 0.25l0 1.96875q1.53125 0.4375 3.09375 1.1875l-0.375 0.71875zm-0.0625 -2.75q-0.53125 -0.65625 -1.0625 -1.0625l0.40625 -0.3125q0.53125 0.40625 1.0625 1.0625l-0.40625 0.3125zm0.75 -0.59375q-0.40625 -0.53125 -1.03125 -1.03125l0.40625 -0.3125q0.53125 0.375 1.03125 1.03125l-0.40625 0.3125z" fill-rule="nonzero"></path><path fill="#d0e0e3" d="m33.918636 148.38338l0 0c0 -4.873535 3.9507828 -8.824326 8.824322 -8.824326l184.77655 0c2.3403473 0 4.584854 0.92970276 6.239731 2.5845947c1.654892 1.6548767 2.5845947 3.8993835 2.5845947 6.239731l0 35.296234c0 4.873535 -3.9507904 8.824326 -8.824326 8.824326l-184.77655 0c-4.873539 0 -8.824322 -3.9507904 -8.824322 -8.824326z" fill-rule="nonzero"></path><path stroke="#76a5af" stroke-width="1.0" stroke-linejoin="round" stroke-linecap="butt" d="m33.918636 148.38338l0 0c0 -4.873535 3.9507828 -8.824326 8.824322 -8.824326l184.77655 0c2.3403473 0 4.584854 0.92970276 6.239731 2.5845947c1.654892 1.6548767 2.5845947 3.8993835 2.5845947 6.239731l0 35.296234c0 4.873535 -3.9507904 8.824326 -8.824326 8.824326l-184.77655 0c-4.873539 0 -8.824322 -3.9507904 -8.824322 -8.824326z" fill-rule="nonzero"></path><path fill="#000000" d="m74.57459 165.86525q1.84375 1.40625 3.640625 3.265625l-0.859375 0.734375q-1.796875 -1.90625 -3.46875 -3.1875q-1.6875 1.796875 -3.828125 3.21875l-0.8125 -0.734375q4.546875 -2.953125 5.84375 -5.921875l-4.6875 0.296875l-0.125 -1.03125l4.984375 -0.21875l0.515625 -0.125l0.6875 0.6875q0.296875 0.296875 -0.171875 0.390625q-0.828125 1.421875 -1.71875 2.625zm8.753906 -0.390625l-4.296875 0l0 -0.953125l8.8125 0l0 0.953125l-3.515625 0l0 0.5625q0 2.703125 -1.9375 4.46875l-0.859375 -0.640625q1.796875 -1.421875 1.796875 -3.828125l0 -0.5625zm-2.75 -2.625l0 -0.9375l5.71875 0l0 0.9375l-5.71875 0zm8.425781 3.390625l0 -0.9375l9.578125 0l0 0.9375l-9.578125 0zm19.335938 -1.234375q-2.1875 3.515625 -6.78125 4.984375q-0.140625 0.515625 -0.4375 0.046875l-0.59375 -0.953125q4.671875 -1.03125 7.046875 -4.859375l0.765625 0.78125zm-6.609375 1.15625q-1.296875 -0.953125 -2.15625 -1.375l0.640625 -0.90625q1.078125 0.5625 2.203125 1.375l-0.6875 0.90625zm1.28125 -2.53125q-1.15625 -0.828125 -2.140625 -1.375l0.546875 -0.90625q1.171875 0.640625 2.203125 1.375l-0.609375 0.90625zm3.5625 -2.921875q0.734375 0.546875 1.46875 1.328125l-0.5625 0.5625q-0.765625 -0.859375 -1.453125 -1.375l0.546875 -0.515625zm-1.03125 0.71875q0.734375 0.609375 1.46875 1.375l-0.5625 0.515625q-0.734375 -0.765625 -1.5 -1.40625l0.59375 -0.484375zm8.0859375 0.78125l0 7.4375l-0.984375 0l0 -5.71875l-2.15625 0l0 -0.6875q1.890625 0.046875 2.453125 -1.03125l0.6875 0zm11.722656 4.890625l-2.78125 0l0 3.28125l-0.859375 0l0 -3.28125l-2.578125 0q-0.09375 2.234375 -1.34375 3.578125l-0.6875 -0.6875q1.171875 -1.296875 1.171875 -3.015625l0 -5.5l7.9375 0l0 8.203125q0 0.703125 -0.6875 0.703125l-1.203125 0l-0.203125 -0.953125l1.0625 0q0.171875 0 0.171875 -0.171875l0 -2.15625zm-6.21875 -2.40625l0 1.59375l2.578125 0l0 -1.59375l-2.578125 0zm0 -2.40625l0 1.59375l2.578125 0l0 -1.59375l-2.578125 0zm3.4375 2.40625l0 1.59375l2.78125 0l0 -1.59375l-2.78125 0zm0 -2.40625l0 1.59375l2.78125 0l0 -1.59375l-2.78125 0zm10.140633 3.09375q0.078125 3.265625 -2.796875 5.078125l-0.734375 -0.8125q2.53125 -1.375 2.53125 -3.875l0 -1.84375l0.90625 0q0.390625 0.046875 0.09375 0.296875l0 1.125q1.546875 -1.171875 2.359375 -2.28125l-7.0 0.25l-0.09375763 -0.984375l7.8281326 -0.21875l0.296875 -0.078125l0.640625 0.765625q0.125 0.171875 -0.21875 0.140625q-1.28125 1.671875 -3.09375 3.125l-0.71875 -0.6875zm13.8671875 -0.890625q-1.28125 1.890625 -2.1875 3.09375l-0.8125 -0.5625q0.9375 -1.15625 1.765625 -2.40625l-3.578125 0.640625l0 3.1875q0 0.59375 0.609375 0.59375l3.953125 0l-0.125 0.953125l-4.09375 0q-1.328125 0 -1.328125 -1.375l0 -3.1875l-2.578125 0.515625l-0.34375 -0.984375l2.921875 -0.515625l0 -2.84375l0.90625 0q0.390625 0.09375 0.078125 0.34375l0 2.375l3.875 -0.65625l0.34375 -0.203125l0.765625 0.765625q0.171875 0.21875 -0.171875 0.265625zm8.2109375 0.03125q-0.296875 2.796875 -1.546875 4.046875q-1.25 1.25 -3.265625 1.984375l-0.5625 -0.828125q1.984375 -0.640625 3.09375 -1.765625q1.203125 -1.203125 1.375 -4.078125l0.90625 0.296875q0.390625 0.140625 0 0.34375zm-3.65625 1.546875q-0.515625 -1.15625 -1.03125 -1.921875l0.828125 -0.4375q0.640625 0.8125 1.109375 1.9375l-0.90625 0.421875zm-2.1875 0.65625q-0.515625 -1.203125 -1.078125 -2.03125l0.859375 -0.421875q0.609375 0.8125 1.078125 1.96875l-0.859375 0.484375zm8.890625 -2.109375q2.109375 0.59375 4.265625 1.625l-0.515625 1.0q-2.28125 -1.171875 -3.75 -1.546875l0 4.46875l-0.984375 0l0 -8.59375l0.859375 0q0.515625 0.03125 0.125 0.34375l0 2.703125zm10.7109375 -0.90625q-0.734375 4.296875 -1.765625 5.328125q-0.5625 0.5625 -1.15625 0.5625q-0.6875 0 -1.078125 -0.390625q-1.03125 -1.03125 -1.03125 -2.578125q0 -1.890625 1.328125 -3.21875q1.46875 -1.46875 3.5625 -1.46875q1.890625 0 2.96875 1.078125q1.203125 1.203125 1.203125 2.84375q0 1.75 -1.109375 2.875q-0.734375 0.734375 -2.234375 1.421875l-0.90625 -0.90625q1.5 -0.46875 2.359375 -1.328125q0.8125 -0.828125 0.8125 -1.984375q0 -1.375 -0.890625 -2.28125q-0.90625 -0.890625 -2.84375 -0.8125l0.78125 0.390625q0.515625 0.21875 0 0.46875zm-1.0 -0.8125q-1.109375 0.25 -1.921875 1.078125q-1.125 1.109375 -1.125 2.75q0 0.984375 0.640625 1.625q0.140625 0.125 0.390625 0.125q0.265625 0 0.5625 -0.296875q0.984375 -0.984375 1.453125 -5.28125zm14.140625 6.140625l-0.984375 0l0 -0.46875l-4.765625 0l0 0.6875l-1.0 0l0 -6.703125l6.75 0l0 6.484375zm-5.75 -5.546875l0 4.125l4.765625 0l0 -4.125l-4.765625 0zm7.6835938 2.75l0 -0.9375l9.578125 0l0 0.9375l-9.578125 0zm16.070312 1.0q-2.28125 -1.171875 -3.734375 -1.546875l0 4.46875l-0.984375 0l0 -8.59375l0.859375 0q0.515625 0.03125 0.125 0.34375l0 2.703125q2.109375 0.59375 4.25 1.625l-0.515625 1.0zm-0.078125 -3.78125q-0.734375 -0.90625 -1.46875 -1.46875l0.5625 -0.421875q0.734375 0.546875 1.453125 1.453125l-0.546875 0.4375zm1.03125 -0.828125q-0.5625 -0.71875 -1.421875 -1.40625l0.5625 -0.4375q0.71875 0.515625 1.40625 1.421875l-0.546875 0.421875z" fill-rule="nonzero"></path><path fill="#d0e0e3" d="m33.918636 249.16553l0 0c0 -4.873535 3.9507828 -8.824326 8.824322 -8.824326l184.77655 0c2.3403473 0 4.584854 0.92970276 6.239731 2.5845947c1.654892 1.6548767 2.5845947 3.8993835 2.5845947 6.239731l0 35.296234c0 4.873535 -3.9507904 8.824341 -8.824326 8.824341l-184.77655 0c-4.873539 0 -8.824322 -3.9508057 -8.824322 -8.824341z" fill-rule="nonzero"></path><path stroke="#76a5af" stroke-width="1.0" stroke-linejoin="round" stroke-linecap="butt" d="m33.918636 249.16553l0 0c0 -4.873535 3.9507828 -8.824326 8.824322 -8.824326l184.77655 0c2.3403473 0 4.584854 0.92970276 6.239731 2.5845947c1.654892 1.6548767 2.5845947 3.8993835 2.5845947 6.239731l0 35.296234c0 4.873535 -3.9507904 8.824341 -8.824326 8.824341l-184.77655 0c-4.873539 0 -8.824322 -3.9508057 -8.824322 -8.824341z" fill-rule="nonzero"></path><path fill="#000000" d="m117.07069 266.6474q1.84375 1.40625 3.640625 3.265625l-0.859375 0.734375q-1.796875 -1.90625 -3.46875 -3.1875q-1.6875 1.796875 -3.828125 3.21875l-0.8125 -0.734375q4.546875 -2.953125 5.84375 -5.921875l-4.6875 0.296875l-0.125 -1.03125l4.984375 -0.21875l0.515625 -0.125l0.6875 0.6875q0.296875 0.296875 -0.171875 0.390625q-0.828125 1.421875 -1.71875 2.625zm8.753906 -0.390625l-4.296875 0l0 -0.953125l8.812508 0l0 0.953125l-3.5156326 0l0 0.5625q0 2.703125 -1.9375 4.46875l-0.859375 -0.640625q1.796875 -1.421875 1.796875 -3.828125l0 -0.5625zm-2.75 -2.625l0 -0.9375l5.7187576 0l0 0.9375l-5.7187576 0zm8.425789 3.390625l0 -0.9375l9.578125 0l0 0.9375l-9.578125 0zm19.335938 -1.234375q-2.1875 3.515625 -6.78125 4.984375q-0.140625 0.515625 -0.4375 0.046875l-0.59375 -0.953125q4.671875 -1.03125 7.046875 -4.859375l0.765625 0.78125zm-6.609375 1.15625q-1.296875 -0.953125 -2.15625 -1.375l0.640625 -0.90625q1.078125 0.5625 2.203125 1.375l-0.6875 0.90625zm1.28125 -2.53125q-1.15625 -0.828125 -2.140625 -1.375l0.546875 -0.90625q1.171875 0.640625 2.203125 1.375l-0.609375 0.90625zm3.5625 -2.921875q0.734375 0.546875 1.46875 1.328125l-0.5625 0.5625q-0.765625 -0.859375 -1.453125 -1.375l0.546875 -0.515625zm-1.03125 0.71875q0.734375 0.609375 1.46875 1.375l-0.5625 0.515625q-0.734375 -0.765625 -1.5 -1.40625l0.59375 -0.484375zm8.0859375 0.78125l0 7.4375l-0.984375 0l0 -5.71875l-2.15625 0l0 -0.6875q1.890625 0.046875 2.453125 -1.03125l0.6875 0z" fill-rule="nonzero"></path><path fill="#d0e0e3" d="m33.918636 349.9477l0 0c0 -4.873535 3.9507828 -8.824341 8.824322 -8.824341l184.77655 0c2.3403473 0 4.584854 0.929718 6.239731 2.5845947c1.654892 1.6548767 2.5845947 3.8993835 2.5845947 6.239746l0 35.296234c0 4.873535 -3.9507904 8.82431 -8.824326 8.82431l-184.77655 0c-4.873539 0 -8.824322 -3.9507751 -8.824322 -8.82431z" fill-rule="nonzero"></path><path stroke="#76a5af" stroke-width="1.0" stroke-linejoin="round" stroke-linecap="butt" d="m33.918636 349.9477l0 0c0 -4.873535 3.9507828 -8.824341 8.824322 -8.824341l184.77655 0c2.3403473 0 4.584854 0.929718 6.239731 2.5845947c1.654892 1.6548767 2.5845947 3.8993835 2.5845947 6.239746l0 35.296234c0 4.873535 -3.9507904 8.82431 -8.824326 8.82431l-184.77655 0c-4.873539 0 -8.824322 -3.9507751 -8.824322 -8.82431z" fill-rule="nonzero"></path><path fill="#000000" d="m84.93006 367.42953q1.84375 1.40625 3.640625 3.265625l-0.859375 0.734375q-1.796875 -1.90625 -3.46875 -3.1875q-1.6875 1.796875 -3.828125 3.21875l-0.8125 -0.734375q4.546875 -2.953125 5.84375 -5.921875l-4.6875 0.296875l-0.125 -1.03125l4.984375 -0.21875l0.515625 -0.125l0.6875 0.6875q0.296875 0.296875 -0.171875 0.390625q-0.828125 1.421875 -1.71875 2.625zm8.753906 -0.390625l-4.296875 0l0 -0.953125l8.8125 0l0 0.953125l-3.515625 0l0 0.5625q0 2.703125 -1.9375 4.46875l-0.859375 -0.640625q1.796875 -1.421875 1.796875 -3.828125l0 -0.5625zm-2.75 -2.625l0 -0.9375l5.71875 0l0 0.9375l-5.71875 0zm8.425781 3.390625l0 -0.9375l9.578125 0l0 0.9375l-9.578125 0zm19.335938 -1.234375q-2.1875 3.515625 -6.78125 4.984375q-0.140625 0.515625 -0.4375 0.046875l-0.59375 -0.953125q4.671875 -1.03125 7.046875 -4.859375l0.765625 0.78125zm-6.609375 1.15625q-1.296875 -0.953125 -2.15625 -1.375l0.640625 -0.90625q1.078125 0.5625 2.203125 1.375l-0.6875 0.90625zm1.28125 -2.53125q-1.15625 -0.828125 -2.140625 -1.375l0.546875 -0.90625q1.171875 0.640625 2.203125 1.375l-0.609375 0.90625zm3.5625 -2.921875q0.734375 0.546875 1.46875 1.328125l-0.5625 0.5625q-0.765625 -0.859375 -1.453125 -1.375l0.546875 -0.515625zm-1.03125 0.71875q0.734375 0.609375 1.46875 1.375l-0.5625 0.515625q-0.734375 -0.765625 -1.5 -1.40625l0.59375 -0.484375zm8.0859375 0.78125l0 7.4375l-0.984375 0l0 -5.71875l-2.15625 0l0 -0.6875q1.890625 0.046875 2.453125 -1.03125l0.6875 0zm10.832039 1.671875q-0.828125 4.6875 -5.375 6.703125l-0.78125 -0.8125q4.21875 -1.71875 5.078125 -5.9375l-3.4375 0q-0.984375 1.640625 -2.0625 2.625l-0.8593826 -0.5625q2.2343826 -2.015625 2.8750076 -4.71875l0.984375 0.34375q0.265625 0.125 -0.078125 0.25q-0.171875 0.5625 -0.46875 1.125l3.09375 0l0.375 -0.21875l0.78125 0.78125q0.296875 0.296875 -0.125 0.421875zm7.5078125 2.109375q0 3.21875 -3.0 4.640625l-0.859375 -0.734375q2.828125 -1.28125 2.875 -3.953125l0 -4.296875l0.90625 0q0.421875 0.09375 0.078125 0.34375l0 4.0zm-4.421875 0.9375l-0.984375 0l0 -4.84375l0.9375 0q0.4375 0.03125 0.046875 0.34375l0 4.5zm11.222656 -1.546875q0.078125 3.265625 -2.796875 5.078125l-0.734375 -0.8125q2.53125 -1.375 2.53125 -3.875l0 -1.84375l0.90625 0q0.390625 0.046875 0.09375 0.296875l0 1.125q1.546875 -1.171875 2.359375 -2.28125l-7.0 0.25l-0.09375 -0.984375l7.828125 -0.21875l0.296875 -0.078125l0.640625 0.765625q0.125 0.171875 -0.21875 0.140625q-1.28125 1.671875 -3.09375 3.125l-0.71875 -0.6875zm11.2890625 0.609375q0 3.21875 -3.0 4.640625l-0.859375 -0.734375q2.828125 -1.28125 2.875 -3.953125l0 -4.296875l0.90625 0q0.421875 0.09375 0.078125 0.34375l0 4.0zm-4.421875 0.9375l-0.984375 0l0 -4.84375l0.9375 0q0.4375 0.03125 0.046875 0.34375l0 4.5zm13.753906 -2.875l2.53125 0l0 0.953125l-2.484375 0l0 0.8125q0 3.21875 -3.40625 4.59375l-0.6875 -0.765625q3.09375 -1.03125 3.09375 -3.75l0 -0.890625l-2.828125 0l0.046875 2.1875l-0.953125 0l-0.046875 -2.1875l-2.40625 0l0 -0.953125l2.40625 0l-0.03125 -2.28125l0.890625 0q0.4375 0.046875 0.046875 0.4375l0.046875 1.84375l2.796875 0l0 -2.625l0.9375 0q0.4375 0.046875 0.046875 0.4375l0 2.1875zm0.765625 -2.828125q0.6875 0.59375 1.375 1.40625l-0.546875 0.484375q-0.6875 -0.859375 -1.296875 -1.375l0.46875 -0.515625zm0.828125 -0.734375q0.71875 0.59375 1.375 1.421875l-0.5625 0.46875q-0.640625 -0.859375 -1.296875 -1.375l0.484375 -0.515625zm8.078125 8.03125q1.890625 -0.734375 3.46875 -2.921875l0.609375 0.8125q-1.640625 2.234375 -4.125 3.234375l-0.34375 0.171875l-0.6875 -0.515625l0.078125 -0.21875l0 -6.921875l0.90625 0q0.390625 0.09375 0.09375 0.34375l0 6.015625zm-5.765625 1.15625q2.15625 -2.0625 2.15625 -5.109375l0 -1.9375l0.890625 0q0.390625 0.09375 0.09375 0.34375l0 1.546875q0 3.609375 -2.28125 5.71875l-0.859375 -0.5625zm12.671875 -5.0625q2.109375 0.59375 4.265625 1.625l-0.515625 1.0q-2.28125 -1.171875 -3.75 -1.546875l0 4.46875l-0.984375 0l0 -8.59375l0.859375 0q0.515625 0.03125 0.125 0.34375l0 2.703125z" fill-rule="nonzero"></path><path fill="#d0e0e3" d="m274.4462 148.38338l0 0c0 -4.873535 3.9507751 -8.824326 8.82431 -8.824326l184.77655 0c2.3403625 0 4.5848694 0.92970276 6.239746 2.5845947c1.6548767 1.6548767 2.5845947 3.8993835 2.5845947 6.239731l0 35.296234c0 4.873535 -3.9507751 8.824326 -8.824341 8.824326l-184.77655 0c-4.873535 0 -8.82431 -3.9507904 -8.82431 -8.824326z" fill-rule="nonzero"></path><path stroke="#76a5af" stroke-width="1.0" stroke-linejoin="round" stroke-linecap="butt" d="m274.4462 148.38338l0 0c0 -4.873535 3.9507751 -8.824326 8.82431 -8.824326l184.77655 0c2.3403625 0 4.5848694 0.92970276 6.239746 2.5845947c1.6548767 1.6548767 2.5845947 3.8993835 2.5845947 6.239731l0 35.296234c0 4.873535 -3.9507751 8.824326 -8.824341 8.824326l-184.77655 0c-4.873535 0 -8.82431 -3.9507904 -8.82431 -8.824326z" fill-rule="nonzero"></path><path fill="#000000" d="m315.10214 165.86525q1.84375 1.40625 3.640625 3.265625l-0.859375 0.734375q-1.796875 -1.90625 -3.46875 -3.1875q-1.6875 1.796875 -3.828125 3.21875l-0.8125 -0.734375q4.546875 -2.953125 5.84375 -5.921875l-4.6875 0.296875l-0.125 -1.03125l4.984375 -0.21875l0.515625 -0.125l0.6875 0.6875q0.296875 0.296875 -0.171875 0.390625q-0.828125 1.421875 -1.71875 2.625zm8.753906 -0.390625l-4.296875 0l0 -0.953125l8.8125 0l0 0.953125l-3.515625 0l0 0.5625q0 2.703125 -1.9375 4.46875l-0.859375 -0.640625q1.796875 -1.421875 1.796875 -3.828125l0 -0.5625zm-2.75 -2.625l0 -0.9375l5.71875 0l0 0.9375l-5.71875 0zm8.425781 3.390625l0 -0.9375l9.578125 0l0 0.9375l-9.578125 0zm19.335938 -1.234375q-2.1875 3.515625 -6.78125 4.984375q-0.140625 0.515625 -0.4375 0.046875l-0.59375 -0.953125q4.671875 -1.03125 7.046875 -4.859375l0.765625 0.78125zm-6.609375 1.15625q-1.296875 -0.953125 -2.15625 -1.375l0.640625 -0.90625q1.078125 0.5625 2.203125 1.375l-0.6875 0.90625zm1.28125 -2.53125q-1.15625 -0.828125 -2.140625 -1.375l0.546875 -0.90625q1.171875 0.640625 2.203125 1.375l-0.609375 0.90625zm3.5625 -2.921875q0.734375 0.546875 1.46875 1.328125l-0.5625 0.5625q-0.765625 -0.859375 -1.453125 -1.375l0.546875 -0.515625zm-1.03125 0.71875q0.734375 0.609375 1.46875 1.375l-0.5625 0.515625q-0.734375 -0.765625 -1.5 -1.40625l0.59375 -0.484375zm9.2890625 1.46875q0.5625 0.5625 0.5625 1.28125q0 1.125 -1.125 1.859375q-1.25 0.8125 -2.015625 1.40625q-0.5625 0.4375 -1.203125 1.25l4.546875 0l0 0.953125l-5.75 0l0 -0.90625q0.25 -0.5625 0.90625 -1.203125q0.765625 -0.78125 2.75 -2.15625q0.8125 -0.546875 0.8125 -1.15625q0 -0.421875 -0.296875 -0.734375q-0.34375 -0.34375 -1.125 -0.34375q-0.859375 0 -1.25 0.390625q-0.46875 0.46875 -0.515625 1.421875l-1.15625 0q0.09375 -1.296875 0.78125 -1.984375q0.765625 -0.765625 2.09375 -0.765625q1.296875 0 1.984375 0.6875zm10.519531 4.203125l-2.78125 0l0 3.28125l-0.859375 0l0 -3.28125l-2.578125 0q-0.09375 2.234375 -1.34375 3.578125l-0.6875 -0.6875q1.171875 -1.296875 1.171875 -3.015625l0 -5.5l7.9375 0l0 8.203125q0 0.703125 -0.6875 0.703125l-1.203125 0l-0.203125 -0.953125l1.0625 0q0.171875 0 0.171875 -0.171875l0 -2.15625zm-6.21875 -2.40625l0 1.59375l2.578125 0l0 -1.59375l-2.578125 0zm0 -2.40625l0 1.59375l2.578125 0l0 -1.59375l-2.578125 0zm3.4375 2.40625l0 1.59375l2.78125 0l0 -1.59375l-2.78125 0zm0 -2.40625l0 1.59375l2.78125 0l0 -1.59375l-2.78125 0zm10.140625 3.09375q0.078125 3.265625 -2.796875 5.078125l-0.734375 -0.8125q2.53125 -1.375 2.53125 -3.875l0 -1.84375l0.90625 0q0.390625 0.046875 0.09375 0.296875l0 1.125q1.546875 -1.171875 2.359375 -2.28125l-7.0 0.25l-0.09375 -0.984375l7.828125 -0.21875l0.296875 -0.078125l0.640625 0.765625q0.125 0.171875 -0.21875 0.140625q-1.28125 1.671875 -3.09375 3.125l-0.71875 -0.6875zm13.8671875 -0.890625q-1.28125 1.890625 -2.1875 3.09375l-0.8125 -0.5625q0.9375 -1.15625 1.765625 -2.40625l-3.578125 0.640625l0 3.1875q0 0.59375 0.609375 0.59375l3.953125 0l-0.125 0.953125l-4.09375 0q-1.328125 0 -1.328125 -1.375l0 -3.1875l-2.578125 0.515625l-0.34375 -0.984375l2.921875 -0.515625l0 -2.84375l0.90625 0q0.390625 0.09375 0.078125 0.34375l0 2.375l3.875 -0.65625l0.34375 -0.203125l0.765625 0.765625q0.171875 0.21875 -0.171875 0.265625zm8.2109375 0.03125q-0.296875 2.796875 -1.546875 4.046875q-1.25 1.25 -3.265625 1.984375l-0.5625 -0.828125q1.984375 -0.640625 3.09375 -1.765625q1.203125 -1.203125 1.375 -4.078125l0.90625 0.296875q0.390625 0.140625 0 0.34375zm-3.65625 1.546875q-0.515625 -1.15625 -1.03125 -1.921875l0.828125 -0.4375q0.640625 0.8125 1.109375 1.9375l-0.90625 0.421875zm-2.1875 0.65625q-0.515625 -1.203125 -1.078125 -2.03125l0.859375 -0.421875q0.609375 0.8125 1.078125 1.96875l-0.859375 0.484375zm8.890625 -2.109375q2.109375 0.59375 4.265625 1.625l-0.515625 1.0q-2.28125 -1.171875 -3.75 -1.546875l0 4.46875l-0.984375 0l0 -8.59375l0.859375 0q0.515625 0.03125 0.125 0.34375l0 2.703125zm10.710968 -0.90625q-0.734375 4.296875 -1.765625 5.328125q-0.5625 0.5625 -1.15625 0.5625q-0.6875 0 -1.078125 -0.390625q-1.0312805 -1.03125 -1.0312805 -2.578125q0 -1.890625 1.3281555 -3.21875q1.46875 -1.46875 3.5625 -1.46875q1.890625 0 2.96875 1.078125q1.203125 1.203125 1.203125 2.84375q0 1.75 -1.109375 2.875q-0.734375 0.734375 -2.234375 1.421875l-0.90625 -0.90625q1.5 -0.46875 2.359375 -1.328125q0.8125 -0.828125 0.8125 -1.984375q0 -1.375 -0.890625 -2.28125q-0.90625 -0.890625 -2.84375 -0.8125l0.78125 0.390625q0.515625 0.21875 0 0.46875zm-1.0 -0.8125q-1.109375 0.25 -1.921875 1.078125q-1.1250305 1.109375 -1.1250305 2.75q0 0.984375 0.6406555 1.625q0.140625 0.125 0.390625 0.125q0.265625 0 0.5625 -0.296875q0.984375 -0.984375 1.453125 -5.28125zm14.140625 6.140625l-0.984375 0l0 -0.46875l-4.765625 0l0 0.6875l-1.0 0l0 -6.703125l6.75 0l0 6.484375zm-5.75 -5.546875l0 4.125l4.765625 0l0 -4.125l-4.765625 0zm7.6835938 2.75l0 -0.9375l9.578125 0l0 0.9375l-9.578125 0zm16.070312 1.0q-2.28125 -1.171875 -3.734375 -1.546875l0 4.46875l-0.984375 0l0 -8.59375l0.859375 0q0.515625 0.03125 0.125 0.34375l0 2.703125q2.109375 0.59375 4.25 1.625l-0.515625 1.0zm-0.078125 -3.78125q-0.734375 -0.90625 -1.46875 -1.46875l0.5625 -0.421875q0.734375 0.546875 1.453125 1.453125l-0.546875 0.4375zm1.03125 -0.828125q-0.5625 -0.71875 -1.421875 -1.40625l0.5625 -0.4375q0.71875 0.515625 1.40625 1.421875l-0.546875 0.421875z" fill-rule="nonzero"></path><path fill="#d0e0e3" d="m274.4462 249.16553l0 0c0 -4.873535 3.9507751 -8.824326 8.82431 -8.824326l184.77655 0c2.3403625 0 4.5848694 0.92970276 6.239746 2.5845947c1.6548767 1.6548767 2.5845947 3.8993835 2.5845947 6.239731l0 35.296234c0 4.873535 -3.9507751 8.824341 -8.824341 8.824341l-184.77655 0c-4.873535 0 -8.82431 -3.9508057 -8.82431 -8.824341z" fill-rule="nonzero"></path><path stroke="#76a5af" stroke-width="1.0" stroke-linejoin="round" stroke-linecap="butt" d="m274.4462 249.16553l0 0c0 -4.873535 3.9507751 -8.824326 8.82431 -8.824326l184.77655 0c2.3403625 0 4.5848694 0.92970276 6.239746 2.5845947c1.6548767 1.6548767 2.5845947 3.8993835 2.5845947 6.239731l0 35.296234c0 4.873535 -3.9507751 8.824341 -8.824341 8.824341l-184.77655 0c-4.873535 0 -8.82431 -3.9508057 -8.82431 -8.824341z" fill-rule="nonzero"></path><path fill="#000000" d="m357.59824 266.6474q1.84375 1.40625 3.640625 3.265625l-0.859375 0.734375q-1.796875 -1.90625 -3.46875 -3.1875q-1.6875 1.796875 -3.828125 3.21875l-0.8125 -0.734375q4.546875 -2.953125 5.84375 -5.921875l-4.6875 0.296875l-0.125 -1.03125l4.984375 -0.21875l0.515625 -0.125l0.6875 0.6875q0.296875 0.296875 -0.171875 0.390625q-0.828125 1.421875 -1.71875 2.625zm8.753906 -0.390625l-4.296875 0l0 -0.953125l8.8125 0l0 0.953125l-3.515625 0l0 0.5625q0 2.703125 -1.9375 4.46875l-0.859375 -0.640625q1.796875 -1.421875 1.796875 -3.828125l0 -0.5625zm-2.75 -2.625l0 -0.9375l5.71875 0l0 0.9375l-5.71875 0zm8.425781 3.390625l0 -0.9375l9.578125 0l0 0.9375l-9.578125 0zm19.335938 -1.234375q-2.1875 3.515625 -6.78125 4.984375q-0.140625 0.515625 -0.4375 0.046875l-0.59375 -0.953125q4.671875 -1.03125 7.046875 -4.859375l0.765625 0.78125zm-6.609375 1.15625q-1.296875 -0.953125 -2.15625 -1.375l0.640625 -0.90625q1.078125 0.5625 2.203125 1.375l-0.6875 0.90625zm1.28125 -2.53125q-1.15625 -0.828125 -2.140625 -1.375l0.546875 -0.90625q1.171875 0.640625 2.203125 1.375l-0.609375 0.90625zm3.5625 -2.921875q0.734375 0.546875 1.46875 1.328125l-0.5625 0.5625q-0.765625 -0.859375 -1.453125 -1.375l0.546875 -0.515625zm-1.03125 0.71875q0.734375 0.609375 1.46875 1.375l-0.5625 0.515625q-0.734375 -0.765625 -1.5 -1.40625l0.59375 -0.484375zm9.2890625 1.46875q0.5625 0.5625 0.5625 1.28125q0 1.125 -1.125 1.859375q-1.25 0.8125 -2.015625 1.40625q-0.5625 0.4375 -1.203125 1.25l4.546875 0l0 0.953125l-5.75 0l0 -0.90625q0.25 -0.5625 0.90625 -1.203125q0.765625 -0.78125 2.75 -2.15625q0.8125 -0.546875 0.8125 -1.15625q0 -0.421875 -0.296875 -0.734375q-0.34375 -0.34375 -1.125 -0.34375q-0.859375 0 -1.25 0.390625q-0.46875 0.46875 -0.515625 1.421875l-1.15625 0q0.09375 -1.296875 0.78125 -1.984375q0.765625 -0.765625 2.09375 -0.765625q1.296875 0 1.984375 0.6875z" fill-rule="nonzero"></path><path fill="#d0e0e3" d="m274.4462 349.9477l0 0c0 -4.873535 3.9507751 -8.824341 8.82431 -8.824341l184.77655 0c2.3403625 0 4.5848694 0.929718 6.239746 2.5845947c1.6548767 1.6548767 2.5845947 3.8993835 2.5845947 6.239746l0 35.296234c0 4.873535 -3.9507751 8.82431 -8.824341 8.82431l-184.77655 0c-4.873535 0 -8.82431 -3.9507751 -8.82431 -8.82431z" fill-rule="nonzero"></path><path stroke="#76a5af" stroke-width="1.0" stroke-linejoin="round" stroke-linecap="butt" d="m274.4462 349.9477l0 0c0 -4.873535 3.9507751 -8.824341 8.82431 -8.824341l184.77655 0c2.3403625 0 4.5848694 0.929718 6.239746 2.5845947c1.6548767 1.6548767 2.5845947 3.8993835 2.5845947 6.239746l0 35.296234c0 4.873535 -3.9507751 8.82431 -8.824341 8.82431l-184.77655 0c-4.873535 0 -8.82431 -3.9507751 -8.82431 -8.82431z" fill-rule="nonzero"></path><path fill="#000000" d="m325.4576 367.42953q1.84375 1.40625 3.640625 3.265625l-0.859375 0.734375q-1.796875 -1.90625 -3.46875 -3.1875q-1.6875 1.796875 -3.828125 3.21875l-0.8125 -0.734375q4.546875 -2.953125 5.84375 -5.921875l-4.6875 0.296875l-0.125 -1.03125l4.984375 -0.21875l0.515625 -0.125l0.6875 0.6875q0.296875 0.296875 -0.171875 0.390625q-0.828125 1.421875 -1.71875 2.625zm8.753906 -0.390625l-4.296875 0l0 -0.953125l8.8125 0l0 0.953125l-3.515625 0l0 0.5625q0 2.703125 -1.9375 4.46875l-0.859375 -0.640625q1.796875 -1.421875 1.796875 -3.828125l0 -0.5625zm-2.75 -2.625l0 -0.9375l5.71875 0l0 0.9375l-5.71875 0zm8.425781 3.390625l0 -0.9375l9.578125 0l0 0.9375l-9.578125 0zm19.335938 -1.234375q-2.1875 3.515625 -6.78125 4.984375q-0.140625 0.515625 -0.4375 0.046875l-0.59375 -0.953125q4.671875 -1.03125 7.046875 -4.859375l0.765625 0.78125zm-6.609375 1.15625q-1.296875 -0.953125 -2.15625 -1.375l0.640625 -0.90625q1.078125 0.5625 2.203125 1.375l-0.6875 0.90625zm1.28125 -2.53125q-1.15625 -0.828125 -2.140625 -1.375l0.546875 -0.90625q1.171875 0.640625 2.203125 1.375l-0.609375 0.90625zm3.5625 -2.921875q0.734375 0.546875 1.46875 1.328125l-0.5625 0.5625q-0.765625 -0.859375 -1.453125 -1.375l0.546875 -0.515625zm-1.03125 0.71875q0.734375 0.609375 1.46875 1.375l-0.5625 0.515625q-0.734375 -0.765625 -1.5 -1.40625l0.59375 -0.484375zm9.2890625 1.46875q0.5625 0.5625 0.5625 1.28125q0 1.125 -1.125 1.859375q-1.25 0.8125 -2.015625 1.40625q-0.5625 0.4375 -1.203125 1.25l4.546875 0l0 0.953125l-5.75 0l0 -0.90625q0.25 -0.5625 0.90625 -1.203125q0.765625 -0.78125 2.75 -2.15625q0.8125 -0.546875 0.8125 -1.15625q0 -0.421875 -0.296875 -0.734375q-0.34375 -0.34375 -1.125 -0.34375q-0.859375 0 -1.25 0.390625q-0.46875 0.46875 -0.515625 1.421875l-1.15625 0q0.09375 -1.296875 0.78125 -1.984375q0.765625 -0.765625 2.09375 -0.765625q1.296875 0 1.984375 0.6875zm9.628906 0.984375q-0.828125 4.6875 -5.375 6.703125l-0.78125 -0.8125q4.21875 -1.71875 5.078125 -5.9375l-3.4375 0q-0.984375 1.640625 -2.0625 2.625l-0.859375 -0.5625q2.234375 -2.015625 2.875 -4.71875l0.984375 0.34375q0.265625 0.125 -0.078125 0.25q-0.171875 0.5625 -0.46875 1.125l3.09375 0l0.375 -0.21875l0.78125 0.78125q0.296875 0.296875 -0.125 0.421875zm7.5078125 2.109375q0 3.21875 -3.0 4.640625l-0.859375 -0.734375q2.828125 -1.28125 2.875 -3.953125l0 -4.296875l0.90625 0q0.421875 0.09375 0.078125 0.34375l0 4.0zm-4.421875 0.9375l-0.984375 0l0 -4.84375l0.9375 0q0.4375 0.03125 0.046875 0.34375l0 4.5zm11.222656 -1.546875q0.078125 3.265625 -2.796875 5.078125l-0.734375 -0.8125q2.53125 -1.375 2.53125 -3.875l0 -1.84375l0.90625 0q0.390625 0.046875 0.09375 0.296875l0 1.125q1.546875 -1.171875 2.359375 -2.28125l-7.0 0.25l-0.09375 -0.984375l7.828125 -0.21875l0.296875 -0.078125l0.640625 0.765625q0.125 0.171875 -0.21875 0.140625q-1.28125 1.671875 -3.09375 3.125l-0.71875 -0.6875zm11.2890625 0.609375q0 3.21875 -3.0 4.640625l-0.859375 -0.734375q2.828125 -1.28125 2.875 -3.953125l0 -4.296875l0.90625 0q0.421875 0.09375 0.078125 0.34375l0 4.0zm-4.421875 0.9375l-0.984375 0l0 -4.84375l0.9375 0q0.4375 0.03125 0.046875 0.34375l0 4.5zm13.753937 -2.875l2.53125 0l0 0.953125l-2.484375 0l0 0.8125q0 3.21875 -3.40625 4.59375l-0.6875 -0.765625q3.09375 -1.03125 3.09375 -3.75l0 -0.890625l-2.828125 0l0.046875 2.1875l-0.953125 0l-0.046875 -2.1875l-2.4062805 0l0 -0.953125l2.4062805 0l-0.03125 -2.28125l0.890625 0q0.4375 0.046875 0.046875 0.4375l0.046875 1.84375l2.796875 0l0 -2.625l0.9375 0q0.4375 0.046875 0.046875 0.4375l0 2.1875zm0.765625 -2.828125q0.6875 0.59375 1.375 1.40625l-0.546875 0.484375q-0.6875 -0.859375 -1.296875 -1.375l0.46875 -0.515625zm0.828125 -0.734375q0.71875 0.59375 1.375 1.421875l-0.5625 0.46875q-0.640625 -0.859375 -1.296875 -1.375l0.484375 -0.515625zm8.078125 8.03125q1.890625 -0.734375 3.46875 -2.921875l0.609375 0.8125q-1.640625 2.234375 -4.125 3.234375l-0.34375 0.171875l-0.6875 -0.515625l0.078125 -0.21875l0 -6.921875l0.90625 0q0.390625 0.09375 0.09375 0.34375l0 6.015625zm-5.765625 1.15625q2.15625 -2.0625 2.15625 -5.109375l0 -1.9375l0.890625 0q0.390625 0.09375 0.09375 0.34375l0 1.546875q0 3.609375 -2.28125 5.71875l-0.859375 -0.5625zm12.671875 -5.0625q2.109375 0.59375 4.265625 1.625l-0.515625 1.0q-2.28125 -1.171875 -3.75 -1.546875l0 4.46875l-0.984375 0l0 -8.59375l0.859375 0q0.515625 0.03125 0.125 0.34375l0 2.703125z" fill-rule="nonzero"></path><path fill="#d0e0e3" d="m514.97375 148.38338l0 0c0 -4.873535 3.9508057 -8.824326 8.824341 -8.824326l184.77655 0c2.340332 0 4.584839 0.92970276 6.239746 2.5845947c1.6548462 1.6548767 2.5845337 3.8993835 2.5845337 6.239731l0 35.296234c0 4.873535 -3.9507446 8.824326 -8.82428 8.824326l-184.77655 0c-4.873535 0 -8.824341 -3.9507904 -8.824341 -8.824326z" fill-rule="nonzero"></path><path stroke="#76a5af" stroke-width="1.0" stroke-linejoin="round" stroke-linecap="butt" d="m514.97375 148.38338l0 0c0 -4.873535 3.9508057 -8.824326 8.824341 -8.824326l184.77655 0c2.340332 0 4.584839 0.92970276 6.239746 2.5845947c1.6548462 1.6548767 2.5845337 3.8993835 2.5845337 6.239731l0 35.296234c0 4.873535 -3.9507446 8.824326 -8.82428 8.824326l-184.77655 0c-4.873535 0 -8.824341 -3.9507904 -8.824341 -8.824326z" fill-rule="nonzero"></path><path fill="#000000" d="m555.6297 165.86525q1.84375 1.40625 3.640625 3.265625l-0.859375 0.734375q-1.796875 -1.90625 -3.46875 -3.1875q-1.6875 1.796875 -3.828125 3.21875l-0.8125 -0.734375q4.546875 -2.953125 5.84375 -5.921875l-4.6875 0.296875l-0.125 -1.03125l4.984375 -0.21875l0.515625 -0.125l0.6875 0.6875q0.296875 0.296875 -0.171875 0.390625q-0.828125 1.421875 -1.71875 2.625zm8.753906 -0.390625l-4.296875 0l0 -0.953125l8.8125 0l0 0.953125l-3.515625 0l0 0.5625q0 2.703125 -1.9375 4.46875l-0.859375 -0.640625q1.796875 -1.421875 1.796875 -3.828125l0 -0.5625zm-2.75 -2.625l0 -0.9375l5.71875 0l0 0.9375l-5.71875 0zm8.425781 3.390625l0 -0.9375l9.578125 0l0 0.9375l-9.578125 0zm19.335938 -1.234375q-2.1875 3.515625 -6.78125 4.984375q-0.140625 0.515625 -0.4375 0.046875l-0.59375 -0.953125q4.671875 -1.03125 7.046875 -4.859375l0.765625 0.78125zm-6.609375 1.15625q-1.296875 -0.953125 -2.15625 -1.375l0.640625 -0.90625q1.078125 0.5625 2.203125 1.375l-0.6875 0.90625zm1.28125 -2.53125q-1.15625 -0.828125 -2.140625 -1.375l0.546875 -0.90625q1.171875 0.640625 2.203125 1.375l-0.609375 0.90625zm3.5625 -2.921875q0.734375 0.546875 1.46875 1.328125l-0.5625 0.5625q-0.765625 -0.859375 -1.453125 -1.375l0.546875 -0.515625zm-1.03125 0.71875q0.734375 0.609375 1.46875 1.375l-0.5625 0.515625q-0.734375 -0.765625 -1.5 -1.40625l0.59375 -0.484375zm5.2890625 5.671875q0.046875 0.859375 0.46875 1.296875q0.515625 0.515625 1.515625 0.515625q0.859375 0 1.28125 -0.4375q0.390625 -0.375 0.390625 -0.890625q0 -0.6875 -0.390625 -1.078125q-0.390625 -0.390625 -1.890625 -0.296875l0 -0.953125q1.421875 -0.046875 1.8125 -0.421875q0.34375 -0.34375 0.34375 -0.78125q0 -0.390625 -0.34375 -0.734375q-0.34375 -0.34375 -1.203125 -0.34375q-0.859375 0 -1.375 0.515625q-0.3125 0.3125 -0.390625 0.953125l-1.15625 0q0.125 -0.90625 0.8125 -1.59375q0.734375 -0.734375 2.109375 -0.734375q1.328125 0 1.921875 0.609375q0.5625 0.5625 0.5625 1.328125q0 0.6875 -0.515625 1.203125q-0.25 0.265625 -0.6875 0.4375q0.515625 0.125 0.8125 0.421875q0.5625 0.5625 0.5625 1.421875q0 0.90625 -0.640625 1.546875q-0.6875 0.6875 -2.015625 0.6875q-1.546875 0 -2.28125 -0.734375q-0.6875 -0.6875 -0.8125 -1.9375l1.109375 0zm14.519531 0l-2.78125 0l0 3.28125l-0.859375 0l0 -3.28125l-2.578125 0q-0.09375 2.234375 -1.34375 3.578125l-0.6875 -0.6875q1.171875 -1.296875 1.171875 -3.015625l0 -5.5l7.9375 0l0 8.203125q0 0.703125 -0.6875 0.703125l-1.203125 0l-0.203125 -0.953125l1.0625 0q0.171875 0 0.171875 -0.171875l0 -2.15625zm-6.21875 -2.40625l0 1.59375l2.578125 0l0 -1.59375l-2.578125 0zm0 -2.40625l0 1.59375l2.578125 0l0 -1.59375l-2.578125 0zm3.4375 2.40625l0 1.59375l2.78125 0l0 -1.59375l-2.78125 0zm0 -2.40625l0 1.59375l2.78125 0l0 -1.59375l-2.78125 0zm10.140625 3.09375q0.078125 3.265625 -2.796875 5.078125l-0.734375 -0.8125q2.53125 -1.375 2.53125 -3.875l0 -1.84375l0.90625 0q0.390625 0.046875 0.09375 0.296875l0 1.125q1.546875 -1.171875 2.359375 -2.28125l-7.0 0.25l-0.09375 -0.984375l7.828125 -0.21875l0.296875 -0.078125l0.640625 0.765625q0.125 0.171875 -0.21875 0.140625q-1.28125 1.671875 -3.09375 3.125l-0.71875 -0.6875zm13.8671875 -0.890625q-1.28125 1.890625 -2.1875 3.09375l-0.8125 -0.5625q0.9375 -1.15625 1.765625 -2.40625l-3.578125 0.640625l0 3.1875q0 0.59375 0.609375 0.59375l3.953125 0l-0.125 0.953125l-4.09375 0q-1.328125 0 -1.328125 -1.375l0 -3.1875l-2.578125 0.515625l-0.34375 -0.984375l2.921875 -0.515625l0 -2.84375l0.90625 0q0.390625 0.09375 0.078125 0.34375l0 2.375l3.875 -0.65625l0.34375 -0.203125l0.765625 0.765625q0.171875 0.21875 -0.171875 0.265625zm8.2109375 0.03125q-0.296875 2.796875 -1.546875 4.046875q-1.25 1.25 -3.265625 1.984375l-0.5625 -0.828125q1.984375 -0.640625 3.09375 -1.765625q1.203125 -1.203125 1.375 -4.078125l0.90625 0.296875q0.390625 0.140625 0 0.34375zm-3.65625 1.546875q-0.515625 -1.15625 -1.03125 -1.921875l0.828125 -0.4375q0.640625 0.8125 1.109375 1.9375l-0.90625 0.421875zm-2.1875 0.65625q-0.515625 -1.203125 -1.078125 -2.03125l0.859375 -0.421875q0.609375 0.8125 1.078125 1.96875l-0.859375 0.484375zm8.890625 -2.109375q2.109375 0.59375 4.265625 1.625l-0.515625 1.0q-2.28125 -1.171875 -3.75 -1.546875l0 4.46875l-0.984375 0l0 -8.59375l0.859375 0q0.515625 0.03125 0.125 0.34375l0 2.703125zm10.7109375 -0.90625q-0.734375 4.296875 -1.765625 5.328125q-0.5625 0.5625 -1.15625 0.5625q-0.6875 0 -1.078125 -0.390625q-1.03125 -1.03125 -1.03125 -2.578125q0 -1.890625 1.328125 -3.21875q1.46875 -1.46875 3.5625 -1.46875q1.890625 0 2.96875 1.078125q1.203125 1.203125 1.203125 2.84375q0 1.75 -1.109375 2.875q-0.734375 0.734375 -2.234375 1.421875l-0.90625 -0.90625q1.5 -0.46875 2.359375 -1.328125q0.8125 -0.828125 0.8125 -1.984375q0 -1.375 -0.890625 -2.28125q-0.90625 -0.890625 -2.84375 -0.8125l0.78125 0.390625q0.515625 0.21875 0 0.46875zm-1.0 -0.8125q-1.109375 0.25 -1.921875 1.078125q-1.125 1.109375 -1.125 2.75q0 0.984375 0.640625 1.625q0.140625 0.125 0.390625 0.125q0.265625 0 0.5625 -0.296875q0.984375 -0.984375 1.453125 -5.28125zm14.140625 6.140625l-0.984375 0l0 -0.46875l-4.765625 0l0 0.6875l-1.0 0l0 -6.703125l6.75 0l0 6.484375zm-5.75 -5.546875l0 4.125l4.765625 0l0 -4.125l-4.765625 0zm7.6835938 2.75l0 -0.9375l9.578125 0l0 0.9375l-9.578125 0zm16.070312 1.0q-2.28125 -1.171875 -3.734375 -1.546875l0 4.46875l-0.984375 0l0 -8.59375l0.859375 0q0.515625 0.03125 0.125 0.34375l0 2.703125q2.109375 0.59375 4.25 1.625l-0.515625 1.0zm-0.078125 -3.78125q-0.734375 -0.90625 -1.46875 -1.46875l0.5625 -0.421875q0.734375 0.546875 1.453125 1.453125l-0.546875 0.4375zm1.03125 -0.828125q-0.5625 -0.71875 -1.421875 -1.40625l0.5625 -0.4375q0.71875 0.515625 1.40625 1.421875l-0.546875 0.421875z" fill-rule="nonzero"></path><path fill="#d0e0e3" d="m514.97375 249.16553l0 0c0 -4.873535 3.9508057 -8.824326 8.824341 -8.824326l184.77655 0c2.340332 0 4.584839 0.92970276 6.239746 2.5845947c1.6548462 1.6548767 2.5845337 3.8993835 2.5845337 6.239731l0 35.296234c0 4.873535 -3.9507446 8.824341 -8.82428 8.824341l-184.77655 0c-4.873535 0 -8.824341 -3.9508057 -8.824341 -8.824341z" fill-rule="nonzero"></path><path stroke="#76a5af" stroke-width="1.0" stroke-linejoin="round" stroke-linecap="butt" d="m514.97375 249.16553l0 0c0 -4.873535 3.9508057 -8.824326 8.824341 -8.824326l184.77655 0c2.340332 0 4.584839 0.92970276 6.239746 2.5845947c1.6548462 1.6548767 2.5845337 3.8993835 2.5845337 6.239731l0 35.296234c0 4.873535 -3.9507446 8.824341 -8.82428 8.824341l-184.77655 0c-4.873535 0 -8.824341 -3.9508057 -8.824341 -8.824341z" fill-rule="nonzero"></path><path fill="#000000" d="m598.1258 266.6474q1.84375 1.40625 3.640625 3.265625l-0.859375 0.734375q-1.796875 -1.90625 -3.46875 -3.1875q-1.6875 1.796875 -3.828125 3.21875l-0.8125 -0.734375q4.546875 -2.953125 5.84375 -5.921875l-4.6875 0.296875l-0.125 -1.03125l4.984375 -0.21875l0.515625 -0.125l0.6875 0.6875q0.296875 0.296875 -0.171875 0.390625q-0.828125 1.421875 -1.71875 2.625zm8.753906 -0.390625l-4.296875 0l0 -0.953125l8.8125 0l0 0.953125l-3.515625 0l0 0.5625q0 2.703125 -1.9375 4.46875l-0.859375 -0.640625q1.796875 -1.421875 1.796875 -3.828125l0 -0.5625zm-2.75 -2.625l0 -0.9375l5.71875 0l0 0.9375l-5.71875 0zm8.425781 3.390625l0 -0.9375l9.578125 0l0 0.9375l-9.578125 0zm19.335938 -1.234375q-2.1875 3.515625 -6.78125 4.984375q-0.140625 0.515625 -0.4375 0.046875l-0.59375 -0.953125q4.671875 -1.03125 7.046875 -4.859375l0.765625 0.78125zm-6.609375 1.15625q-1.296875 -0.953125 -2.15625 -1.375l0.640625 -0.90625q1.078125 0.5625 2.203125 1.375l-0.6875 0.90625zm1.28125 -2.53125q-1.15625 -0.828125 -2.140625 -1.375l0.546875 -0.90625q1.171875 0.640625 2.203125 1.375l-0.609375 0.90625zm3.5625 -2.921875q0.734375 0.546875 1.46875 1.328125l-0.5625 0.5625q-0.765625 -0.859375 -1.453125 -1.375l0.546875 -0.515625zm-1.03125 0.71875q0.734375 0.609375 1.46875 1.375l-0.5625 0.515625q-0.734375 -0.765625 -1.5 -1.40625l0.59375 -0.484375zm5.2890625 5.671875q0.046875 0.859375 0.46875 1.296875q0.515625 0.515625 1.515625 0.515625q0.859375 0 1.28125 -0.4375q0.390625 -0.375 0.390625 -0.890625q0 -0.6875 -0.390625 -1.078125q-0.390625 -0.390625 -1.890625 -0.296875l0 -0.953125q1.421875 -0.046875 1.8125 -0.421875q0.34375 -0.34375 0.34375 -0.78125q0 -0.390625 -0.34375 -0.734375q-0.34375 -0.34375 -1.203125 -0.34375q-0.859375 0 -1.375 0.515625q-0.3125 0.3125 -0.390625 0.953125l-1.15625 0q0.125 -0.90625 0.8125 -1.59375q0.734375 -0.734375 2.109375 -0.734375q1.328125 0 1.921875 0.609375q0.5625 0.5625 0.5625 1.328125q0 0.6875 -0.515625 1.203125q-0.25 0.265625 -0.6875 0.4375q0.515625 0.125 0.8125 0.421875q0.5625 0.5625 0.5625 1.421875q0 0.90625 -0.640625 1.546875q-0.6875 0.6875 -2.015625 0.6875q-1.546875 0 -2.28125 -0.734375q-0.6875 -0.6875 -0.8125 -1.9375l1.109375 0z" fill-rule="nonzero"></path><path fill="#d0e0e3" d="m514.97375 349.9477l0 0c0 -4.873535 3.9508057 -8.824341 8.824341 -8.824341l184.77655 0c2.340332 0 4.584839 0.929718 6.239746 2.5845947c1.6548462 1.6548767 2.5845337 3.8993835 2.5845337 6.239746l0 35.296234c0 4.873535 -3.9507446 8.82431 -8.82428 8.82431l-184.77655 0c-4.873535 0 -8.824341 -3.9507751 -8.824341 -8.82431z" fill-rule="nonzero"></path><path stroke="#76a5af" stroke-width="1.0" stroke-linejoin="round" stroke-linecap="butt" d="m514.97375 349.9477l0 0c0 -4.873535 3.9508057 -8.824341 8.824341 -8.824341l184.77655 0c2.340332 0 4.584839 0.929718 6.239746 2.5845947c1.6548462 1.6548767 2.5845337 3.8993835 2.5845337 6.239746l0 35.296234c0 4.873535 -3.9507446 8.82431 -8.82428 8.82431l-184.77655 0c-4.873535 0 -8.824341 -3.9507751 -8.824341 -8.82431z" fill-rule="nonzero"></path><path fill="#000000" d="m565.98517 367.42953q1.84375 1.40625 3.640625 3.265625l-0.859375 0.734375q-1.796875 -1.90625 -3.46875 -3.1875q-1.6875 1.796875 -3.828125 3.21875l-0.8125 -0.734375q4.546875 -2.953125 5.84375 -5.921875l-4.6875 0.296875l-0.125 -1.03125l4.984375 -0.21875l0.515625 -0.125l0.6875 0.6875q0.296875 0.296875 -0.171875 0.390625q-0.828125 1.421875 -1.71875 2.625zm8.753906 -0.390625l-4.296875 0l0 -0.953125l8.8125 0l0 0.953125l-3.515625 0l0 0.5625q0 2.703125 -1.9375 4.46875l-0.859375 -0.640625q1.796875 -1.421875 1.796875 -3.828125l0 -0.5625zm-2.75 -2.625l0 -0.9375l5.71875 0l0 0.9375l-5.71875 0zm8.425781 3.390625l0 -0.9375l9.578125 0l0 0.9375l-9.578125 0zm19.335938 -1.234375q-2.1875 3.515625 -6.78125 4.984375q-0.140625 0.515625 -0.4375 0.046875l-0.59375 -0.953125q4.671875 -1.03125 7.046875 -4.859375l0.765625 0.78125zm-6.609375 1.15625q-1.296875 -0.953125 -2.15625 -1.375l0.640625 -0.90625q1.078125 0.5625 2.203125 1.375l-0.6875 0.90625zm1.28125 -2.53125q-1.15625 -0.828125 -2.140625 -1.375l0.546875 -0.90625q1.171875 0.640625 2.203125 1.375l-0.609375 0.90625zm3.5625 -2.921875q0.734375 0.546875 1.46875 1.328125l-0.5625 0.5625q-0.765625 -0.859375 -1.453125 -1.375l0.546875 -0.515625zm-1.03125 0.71875q0.734375 0.609375 1.46875 1.375l-0.5625 0.515625q-0.734375 -0.765625 -1.5 -1.40625l0.59375 -0.484375zm5.2890625 5.671875q0.046875 0.859375 0.46875 1.296875q0.515625 0.515625 1.515625 0.515625q0.859375 0 1.28125 -0.4375q0.390625 -0.375 0.390625 -0.890625q0 -0.6875 -0.390625 -1.078125q-0.390625 -0.390625 -1.890625 -0.296875l0 -0.953125q1.421875 -0.046875 1.8125 -0.421875q0.34375 -0.34375 0.34375 -0.78125q0 -0.390625 -0.34375 -0.734375q-0.34375 -0.34375 -1.203125 -0.34375q-0.859375 0 -1.375 0.515625q-0.3125 0.3125 -0.390625 0.953125l-1.15625 0q0.125 -0.90625 0.8125 -1.59375q0.734375 -0.734375 2.109375 -0.734375q1.328125 0 1.921875 0.609375q0.5625 0.5625 0.5625 1.328125q0 0.6875 -0.515625 1.203125q-0.25 0.265625 -0.6875 0.4375q0.515625 0.125 0.8125 0.421875q0.5625 0.5625 0.5625 1.421875q0 0.90625 -0.640625 1.546875q-0.6875 0.6875 -2.015625 0.6875q-1.546875 0 -2.28125 -0.734375q-0.6875 -0.6875 -0.8125 -1.9375l1.109375 0zm13.628906 -3.21875q-0.828125 4.6875 -5.375 6.703125l-0.78125 -0.8125q4.21875 -1.71875 5.078125 -5.9375l-3.4375 0q-0.984375 1.640625 -2.0625 2.625l-0.859375 -0.5625q2.234375 -2.015625 2.875 -4.71875l0.984375 0.34375q0.265625 0.125 -0.078125 0.25q-0.171875 0.5625 -0.46875 1.125l3.09375 0l0.375 -0.21875l0.78125 0.78125q0.296875 0.296875 -0.125 0.421875zm7.5078125 2.109375q0 3.21875 -3.0 4.640625l-0.859375 -0.734375q2.828125 -1.28125 2.875 -3.953125l0 -4.296875l0.90625 0q0.421875 0.09375 0.078125 0.34375l0 4.0zm-4.421875 0.9375l-0.984375 0l0 -4.84375l0.9375 0q0.4375 0.03125 0.046875 0.34375l0 4.5zm11.222656 -1.546875q0.078125 3.265625 -2.796875 5.078125l-0.734375 -0.8125q2.53125 -1.375 2.53125 -3.875l0 -1.84375l0.90625 0q0.390625 0.046875 0.09375 0.296875l0 1.125q1.546875 -1.171875 2.359375 -2.28125l-7.0 0.25l-0.09375 -0.984375l7.828125 -0.21875l0.296875 -0.078125l0.640625 0.765625q0.125 0.171875 -0.21875 0.140625q-1.28125 1.671875 -3.09375 3.125l-0.71875 -0.6875zm11.2890625 0.609375q0 3.21875 -3.0 4.640625l-0.859375 -0.734375q2.828125 -1.28125 2.875 -3.953125l0 -4.296875l0.90625 0q0.421875 0.09375 0.078125 0.34375l0 4.0zm-4.421875 0.9375l-0.984375 0l0 -4.84375l0.9375 0q0.4375 0.03125 0.046875 0.34375l0 4.5zm13.753906 -2.875l2.53125 0l0 0.953125l-2.484375 0l0 0.8125q0 3.21875 -3.40625 4.59375l-0.6875 -0.765625q3.09375 -1.03125 3.09375 -3.75l0 -0.890625l-2.828125 0l0.046875 2.1875l-0.953125 0l-0.046875 -2.1875l-2.40625 0l0 -0.953125l2.40625 0l-0.03125 -2.28125l0.890625 0q0.4375 0.046875 0.046875 0.4375l0.046875 1.84375l2.796875 0l0 -2.625l0.9375 0q0.4375 0.046875 0.046875 0.4375l0 2.1875zm0.765625 -2.828125q0.6875 0.59375 1.375 1.40625l-0.546875 0.484375q-0.6875 -0.859375 -1.296875 -1.375l0.46875 -0.515625zm0.828125 -0.734375q0.71875 0.59375 1.375 1.421875l-0.5625 0.46875q-0.640625 -0.859375 -1.296875 -1.375l0.484375 -0.515625zm8.078125 8.03125q1.890625 -0.734375 3.46875 -2.921875l0.609375 0.8125q-1.640625 2.234375 -4.125 3.234375l-0.34375 0.171875l-0.6875 -0.515625l0.078125 -0.21875l0 -6.921875l0.90625 0q0.390625 0.09375 0.09375 0.34375l0 6.015625zm-5.765625 1.15625q2.15625 -2.0625 2.15625 -5.109375l0 -1.9375l0.890625 0q0.390625 0.09375 0.09375 0.34375l0 1.546875q0 3.609375 -2.28125 5.71875l-0.859375 -0.5625zm12.671875 -5.0625q2.109375 0.59375 4.265625 1.625l-0.515625 1.0q-2.28125 -1.171875 -3.75 -1.546875l0 4.46875l-0.984375 0l0 -8.59375l0.859375 0q0.515625 0.03125 0.125 0.34375l0 2.703125z" fill-rule="nonzero"></path><path fill="#d0e0e3" d="m813.5066 198.77708l0 0c0 -4.8735504 3.9507446 -8.824326 8.82428 -8.824326l184.77655 0c2.340393 0 4.5849 0.92970276 6.239746 2.5845795c1.6549072 1.6548767 2.5845947 3.8993835 2.5845947 6.239746l0 35.296234c0 4.873535 -3.9508057 8.824326 -8.824341 8.824326l-184.77655 0c-4.873535 0 -8.82428 -3.9507904 -8.82428 -8.824326z" fill-rule="nonzero"></path><path stroke="#76a5af" stroke-width="1.0" stroke-linejoin="round" stroke-linecap="butt" d="m813.5066 198.77708l0 0c0 -4.8735504 3.9507446 -8.824326 8.82428 -8.824326l184.77655 0c2.340393 0 4.5849 0.92970276 6.239746 2.5845795c1.6549072 1.6548767 2.5845947 3.8993835 2.5845947 6.239746l0 35.296234c0 4.873535 -3.9508057 8.824326 -8.824341 8.824326l-184.77655 0c-4.873535 0 -8.82428 -3.9507904 -8.82428 -8.824326z" fill-rule="nonzero"></path><path fill="#000000" d="m895.4086 218.35269l0 0.953125l-8.546875 0l0 -0.953125l3.734375 0l0 -4.25l-3.015625 0l0 -0.9375l6.96875 0l0 0.9375l-2.96875 0l0 4.25l3.828125 0zm9.621094 -3.171875q-2.28125 4.71875 -7.640625 4.984375q-0.21875 0.5625 -0.4375 0.09375l-0.34375 -1.125q5.59375 -0.125 7.515625 -4.59375l0.90625 0.640625zm-6.0625 0q-1.15625 -1.078125 -2.1875 -1.765625l0.734375 -0.90625q0.90625 0.5625 2.28125 1.859375l-0.828125 0.8125zm11.558594 0.6875l-4.296875 0l0 -0.953125l8.8125 0l0 0.953125l-3.515625 0l0 0.5625q0 2.703125 -1.9375 4.46875l-0.859375 -0.640625q1.796875 -1.421875 1.796875 -3.828125l0 -0.5625zm-2.75 -2.625l0 -0.9375l5.296875 0l0 0.9375l-5.296875 0zm5.84375 -1.765625q0.5625 0.5625 1.203125 1.515625l-0.59375 0.421875q-0.609375 -0.859375 -1.203125 -1.546875l0.59375 -0.390625zm1.03125 -0.546875q0.5625 0.59375 1.203125 1.453125l-0.59375 0.4375q-0.6875 -0.953125 -1.203125 -1.46875l0.59375 -0.421875zm5.9765625 10.09375l-0.859375 0l0 -4.0q-0.9375 0.734375 -2.828125 1.671875l-0.609375 -0.71875q4.078125 -1.984375 5.59375 -4.34375l0.71875 0.5625q0.265625 0.203125 -0.171875 0.296875q-0.71875 0.90625 -1.84375 1.84375l0 4.6875zm11.644531 -5.84375q-2.28125 4.71875 -7.640625 4.984375q-0.21875 0.5625 -0.4375 0.09375l-0.34375 -1.125q5.59375 -0.125 7.515625 -4.59375l0.90625 0.640625zm-6.0625 0q-1.15625 -1.078125 -2.1875 -1.765625l0.734375 -0.90625q0.90625 0.5625 2.28125 1.859375l-0.828125 0.8125zm14.621094 -0.90625q-0.828125 4.6875 -5.375 6.703125l-0.78125 -0.8125q4.21875 -1.71875 5.078125 -5.9375l-3.4375 0q-0.984375 1.640625 -2.0625 2.625l-0.859375 -0.5625q2.234375 -2.015625 2.875 -4.71875l0.984375 0.34375q0.265625 0.125 -0.078125 0.25q-0.171875 0.5625 -0.46875 1.125l3.09375 0l0.375 -0.21875l0.78125 0.78125q0.296875 0.296875 -0.125 0.421875zm0.25 -1.03125q-0.6875 -0.984375 -1.328125 -1.5l0.5625 -0.46875q0.71875 0.640625 1.375 1.5l-0.609375 0.46875zm1.25 -0.515625q-0.6875 -0.859375 -1.25 -1.375l0.515625 -0.515625q0.640625 0.609375 1.25 1.375l-0.515625 0.515625z" fill-rule="nonzero"></path><path fill="#d0e0e3" d="m813.5066 299.55923l0 0c0 -4.873535 3.9507446 -8.824341 8.82428 -8.824341l184.77655 0c2.340393 0 4.5849 0.929718 6.239746 2.5845947c1.6549072 1.6548767 2.5845947 3.8993835 2.5845947 6.239746l0 35.296234c0 4.873535 -3.9508057 8.82431 -8.824341 8.82431l-184.77655 0c-4.873535 0 -8.82428 -3.9507751 -8.82428 -8.82431z" fill-rule="nonzero"></path><path stroke="#76a5af" stroke-width="1.0" stroke-linejoin="round" stroke-linecap="butt" d="m813.5066 299.55923l0 0c0 -4.873535 3.9507446 -8.824341 8.82428 -8.824341l184.77655 0c2.340393 0 4.5849 0.929718 6.239746 2.5845947c1.6549072 1.6548767 2.5845947 3.8993835 2.5845947 6.239746l0 35.296234c0 4.873535 -3.9508057 8.82431 -8.824341 8.82431l-184.77655 0c-4.873535 0 -8.82428 -3.9507751 -8.82428 -8.82431z" fill-rule="nonzero"></path><path fill="#000000" d="m887.1977 314.9786l0 0.9375l-2.484375 0q-0.390625 3.359375 -3.234375 5.8125l-0.984375 -0.5625q2.96875 -2.375 3.140625 -5.25l-3.265625 0q-0.5625 1.125 -1.421875 1.984375l-0.859375 -0.484375q1.890625 -1.921875 2.40625 -4.890625l1.078125 0.25q0.34375 0.09375 -0.09375 0.34375q-0.25 0.953125 -0.640625 1.859375l6.359375 0zm-1.9375 -2.625q0.6875 0.6875 1.375 1.546875l-0.546875 0.46875q-0.78125 -0.90625 -1.375 -1.546875l0.546875 -0.46875zm1.203125 -0.46875q0.734375 0.6875 1.421875 1.5l-0.640625 0.46875q-0.6875 -0.90625 -1.296875 -1.5l0.515625 -0.46875zm2.1953125 5.53125l0 -0.9375l9.578125 0l0 0.9375l-9.578125 0zm10.6171875 1.984375l1.796875 -0.046875q1.546875 -3.34375 2.375 -6.828125l0.984375 0.34375q0.390625 0.25 -0.09375 0.390625q-0.8125 3.046875 -2.1875 6.015625l4.46875 -0.21875q-0.90625 -1.203125 -1.421875 -1.765625l0.859375 -0.59375q1.46875 1.578125 2.796875 3.734375l-0.9375 0.640625l-0.6875 -1.109375l-7.21875 0.546875q-0.265625 0.4375 -0.390625 0l-0.34375 -1.109375zm10.4453125 0.421875q2.75 -1.75 4.296875 -4.203125l-4.046875 0l0 -0.953125l4.5625 0l0 -2.359375l0.890625 0q0.390625 0.09375 0.09375 0.34375l0 2.015625l3.609375 0l0 0.953125l-3.609375 0l0 5.03125q0 1.03125 -0.984375 1.03125l-1.203125 0l-0.171875 -0.953125l0.859375 0q0.515625 -0.078125 0.515625 -0.5625l0 -3.609375q-1.640625 2.40625 -3.953125 4.046875l-0.859375 -0.78125zm10.519531 -2.40625l0 -0.9375l9.578125 0l0 0.9375l-9.578125 0zm17.445312 -3.171875q2.15625 2.703125 3.046875 5.71875l-1.15625 0.375q-1.078125 -3.390625 -2.796875 -5.40625l0.90625 -0.6875zm-3.265625 0.984375q0.34375 0.21875 -0.078125 0.390625q-0.78125 2.703125 -2.5 4.9375l-0.984375 -0.640625q1.890625 -2.28125 2.53125 -5.15625l1.03125 0.46875zm5.15625 -3.34375q0.5625 0.46875 1.375 1.328125l-0.5625 0.515625q-0.765625 -0.859375 -1.375 -1.375l0.5625 -0.46875zm-1.03125 0.640625q0.640625 0.59375 1.375 1.453125l-0.640625 0.484375q-0.640625 -0.859375 -1.328125 -1.46875l0.59375 -0.46875zm3.265625 4.890625l0 -0.9375l9.578125 0l0 0.9375l-9.578125 0z" fill-rule="nonzero"></path><path fill="#d0e0e3" d="m813.5066 400.34137l0 0c0 -4.873535 3.9507446 -8.82431 8.82428 -8.82431l184.77655 0c2.340393 0 4.5849 0.929718 6.239746 2.5845947c1.6549072 1.6548767 2.5845947 3.8993835 2.5845947 6.2397156l0 35.296234c0 4.8735657 -3.9508057 8.824341 -8.824341 8.824341l-184.77655 0c-4.873535 0 -8.82428 -3.9507751 -8.82428 -8.824341z" fill-rule="nonzero"></path><path stroke="#76a5af" stroke-width="1.0" stroke-linejoin="round" stroke-linecap="butt" d="m813.5066 400.34137l0 0c0 -4.873535 3.9507446 -8.82431 8.82428 -8.82431l184.77655 0c2.340393 0 4.5849 0.929718 6.239746 2.5845947c1.6549072 1.6548767 2.5845947 3.8993835 2.5845947 6.2397156l0 35.296234c0 4.8735657 -3.9508057 8.824341 -8.824341 8.824341l-184.77655 0c-4.873535 0 -8.82428 -3.9507751 -8.82428 -8.824341z" fill-rule="nonzero"></path><path fill="#000000" d="m883.54535 414.8545l0.265625 -0.09375l0.46875 0.65625q0.171875 0.296875 -0.171875 0.296875q-0.90625 0.9375 -2.359375 2.109375l0 4.515625l-1.0 0l0 -3.828125q-1.40625 0.9375 -3.171875 1.71875l-0.734375 -0.78125q3.5625 -1.328125 5.84375 -3.65625l-4.859375 0.21875l-0.125 -0.9375l3.046875 -0.09375l0 -1.9375l0.859375 0q0.390625 0.09375 0.140625 0.34375l0 1.546875l1.796875 -0.078125zm1.71875 5.375q-1.453125 -1.25 -2.625 -1.890625l0.65625 -0.828125q1.546875 0.828125 2.703125 1.859375l-0.734375 0.859375zm1.8046875 -2.03125l0 -0.9375l9.578125 0l0 0.9375l-9.578125 0zm10.6171875 1.984375l1.796875 -0.046875q1.546875 -3.34375 2.375 -6.828125l0.984375 0.34375q0.390625 0.25 -0.09375 0.390625q-0.8125 3.046875 -2.1875 6.015625l4.46875 -0.21875q-0.90625 -1.203125 -1.421875 -1.765625l0.859375 -0.59375q1.46875 1.578125 2.796875 3.734375l-0.9375 0.640625l-0.6875 -1.109375l-7.21875 0.546875q-0.265625 0.4375 -0.390625 0l-0.34375 -1.109375zm19.335938 -0.265625l0 0.953125l-8.546875 0l0 -0.953125l3.734375 0l0 -4.25l-3.015625 0l0 -0.9375l6.96875 0l0 0.9375l-2.96875 0l0 4.25l3.828125 0zm9.621094 -3.171875q-2.28125 4.71875 -7.640625 4.984375q-0.21875 0.5625 -0.4375 0.09375l-0.34375 -1.125q5.59375 -0.125 7.515625 -4.59375l0.90625 0.640625zm-6.0625 0q-1.15625 -1.078125 -2.1875 -1.765625l0.734375 -0.90625q0.90625 0.5625 2.28125 1.859375l-0.828125 0.8125zm8.980469 -0.171875q2.109375 0.59375 4.265625 1.625l-0.515625 1.0q-2.28125 -1.171875 -3.75 -1.546875l0 4.46875l-0.984375 0l0 -8.59375l0.859375 0q0.515625 0.03125 0.125 0.34375l0 2.703125zm11.4296875 1.375q0 3.21875 -3.0 4.640625l-0.859375 -0.734375q2.828125 -1.28125 2.875 -3.953125l0 -4.296875l0.90625 0q0.421875 0.09375 0.078125 0.34375l0 4.0zm-4.421875 0.9375l-0.984375 0l0 -4.84375l0.9375 0q0.4375 0.03125 0.046875 0.34375l0 4.5zm6.4882812 -0.6875l0 -0.9375l9.578125 0l0 0.9375l-9.578125 0z" fill-rule="nonzero"></path><path fill="#000000" fill-opacity="0.0" d="m135.13124 76.34646l0 31.6063l0.06298828 0l0 31.606293" fill-rule="nonzero"></path><path stroke="#000000" stroke-width="1.0" stroke-linejoin="round" stroke-linecap="butt" d="m135.13124 76.34646l0 31.6063l0.06298828 0l0 25.606293" fill-rule="evenodd"></path><path fill="#000000" stroke="#000000" stroke-width="1.0" stroke-linecap="butt" d="m133.5425 133.55905l1.6517334 4.538101l1.6517334 -4.538101z" fill-rule="evenodd"></path><path fill="#000000" fill-opacity="0.0" d="m135.13124 192.50394l0 23.918869l0.06298828 0l0 23.923645" fill-rule="nonzero"></path><path stroke="#000000" stroke-width="1.0" stroke-linejoin="round" stroke-linecap="butt" d="m135.13124 192.50394l0 23.918854l0.06298828 0l0 17.92366" fill-rule="evenodd"></path><path fill="#000000" stroke="#000000" stroke-width="1.0" stroke-linecap="butt" d="m133.5425 234.34645l1.6517334 4.538101l1.6517334 -4.538101z" fill-rule="evenodd"></path><path fill="#000000" fill-opacity="0.0" d="m135.13124 293.2861l0 23.918854l0.06298828 0l0 23.923645" fill-rule="nonzero"></path><path stroke="#000000" stroke-width="1.0" stroke-linejoin="round" stroke-linecap="butt" d="m135.13124 293.2861l0 23.918854l0.06298828 0l0 17.923645" fill-rule="evenodd"></path><path fill="#000000" stroke="#000000" stroke-width="1.0" stroke-linecap="butt" d="m133.5425 335.1286l1.6517334 4.5381165l1.6517334 -4.5381165z" fill-rule="evenodd"></path><path fill="#000000" fill-opacity="0.0" d="m135.13124 394.06824l0 24.998932l120.26289 0l0 -304.50735l120.27252 0l0 24.988739" fill-rule="nonzero"></path><path stroke="#000000" stroke-width="1.0" stroke-linejoin="round" stroke-linecap="butt" d="m135.13124 394.06824l0 24.998932l120.26291 0l0 -304.50735l120.27251 0l0 18.988739" fill-rule="evenodd"></path><path fill="#000000" stroke="#000000" stroke-width="1.0" stroke-linecap="butt" d="m374.01492 133.54855l1.6517334 4.538101l1.6517334 -4.538101z" fill-rule="evenodd"></path><path fill="#000000" fill-opacity="0.0" d="m375.65878 192.50394l0 23.918869l0.0630188 0l0 23.923645" fill-rule="nonzero"></path><path stroke="#000000" stroke-width="1.0" stroke-linejoin="round" stroke-linecap="butt" d="m375.65878 192.50394l0 23.918854l0.06298828 0l0 17.92366" fill-rule="evenodd"></path><path fill="#000000" stroke="#000000" stroke-width="1.0" stroke-linecap="butt" d="m374.07004 234.34645l1.6517334 4.538101l1.6517334 -4.538101z" fill-rule="evenodd"></path><path fill="#000000" fill-opacity="0.0" d="m375.65878 293.2861l0 23.918854l0.0630188 0l0 23.923645" fill-rule="nonzero"></path><path stroke="#000000" stroke-width="1.0" stroke-linejoin="round" stroke-linecap="butt" d="m375.65878 293.2861l0 23.918854l0.06298828 0l0 17.923645" fill-rule="evenodd"></path><path fill="#000000" stroke="#000000" stroke-width="1.0" stroke-linecap="butt" d="m374.07004 335.1286l1.6517334 4.5381165l1.6517334 -4.5381165z" fill-rule="evenodd"></path><path fill="#000000" fill-opacity="0.0" d="m375.65878 394.06824l0 24.998932l120.26291 0l0 -304.50735l120.27252 0l0 24.988739" fill-rule="nonzero"></path><path stroke="#000000" stroke-width="1.0" stroke-linejoin="round" stroke-linecap="butt" d="m375.65878 394.06824l0 24.998932l120.26294 0l0 -304.50735l120.27249 0l0 18.988739" fill-rule="evenodd"></path><path fill="#000000" stroke="#000000" stroke-width="1.0" stroke-linecap="butt" d="m614.5425 133.54855l1.6517334 4.538101l1.6517334 -4.538101z" fill-rule="evenodd"></path><path fill="#000000" fill-opacity="0.0" d="m616.18634 192.50394l0 23.918869l0.06298828 0l0 23.923645" fill-rule="nonzero"></path><path stroke="#000000" stroke-width="1.0" stroke-linejoin="round" stroke-linecap="butt" d="m616.18634 192.50394l0 23.918854l0.06298828 0l0 17.92366" fill-rule="evenodd"></path><path fill="#000000" stroke="#000000" stroke-width="1.0" stroke-linecap="butt" d="m614.5976 234.34645l1.6517334 4.538101l1.6517334 -4.538101z" fill-rule="evenodd"></path><path fill="#000000" fill-opacity="0.0" d="m616.18634 293.2861l0 23.918854l0.06298828 0l0 23.923645" fill-rule="nonzero"></path><path stroke="#000000" stroke-width="1.0" stroke-linejoin="round" stroke-linecap="butt" d="m616.18634 293.2861l0 23.918854l0.06298828 0l0 17.923645" fill-rule="evenodd"></path><path fill="#000000" stroke="#000000" stroke-width="1.0" stroke-linecap="butt" d="m614.5976 335.1286l1.6517334 4.5381165l1.6517334 -4.5381165z" fill-rule="evenodd"></path><path fill="#000000" fill-opacity="0.0" d="m616.18634 394.06824l0 24.999298l149.26581 0l0 -254.11438l149.2539 0l0 24.989105" fill-rule="nonzero"></path><path stroke="#000000" stroke-width="1.0" stroke-linejoin="round" stroke-linecap="butt" d="m616.18634 394.06824l0 24.999298l149.26587 0l0 -254.11438l149.25385 0l0 18.989105" fill-rule="evenodd"></path><path fill="#000000" stroke="#000000" stroke-width="1.0" stroke-linecap="butt" d="m913.0543 183.94226l1.6517334 4.538101l1.6517334 -4.538101z" fill-rule="evenodd"></path><path fill="#000000" fill-opacity="0.0" d="m914.7192 242.89764l0 23.918854l0.06298828 0l0 23.923645" fill-rule="nonzero"></path><path stroke="#000000" stroke-width="1.0" stroke-linejoin="round" stroke-linecap="butt" d="m914.7192 242.89764l0 23.918854l0.06298828 0l0 17.923645" fill-rule="evenodd"></path><path fill="#000000" stroke="#000000" stroke-width="1.0" stroke-linecap="butt" d="m913.13043 284.74014l1.6517334 4.5381165l1.6517334 -4.5381165z" fill-rule="evenodd"></path><path fill="#000000" fill-opacity="0.0" d="m914.7192 343.67978l0 23.918884l0.06298828 0l0 23.923645" fill-rule="nonzero"></path><path stroke="#000000" stroke-width="1.0" stroke-linejoin="round" stroke-linecap="butt" d="m914.7192 343.67978l0 23.918884l0.06298828 0l0 17.923645" fill-rule="evenodd"></path><path fill="#000000" stroke="#000000" stroke-width="1.0" stroke-linecap="butt" d="m913.13043 385.5223l1.6517334 4.538086l1.6517334 -4.538086z" fill-rule="evenodd"></path><path fill="#000000" fill-opacity="0.0" d="m236.34384 266.81366l6.902893 0l0 50.393677l570.26245 0" fill-rule="nonzero"></path><path stroke="#000000" stroke-width="1.0" stroke-linejoin="round" stroke-linecap="butt" d="m236.34383 266.81366l6.9029083 0l0 50.393677l564.26245 0" fill-rule="evenodd"></path><path fill="#000000" stroke="#000000" stroke-width="1.0" stroke-linecap="butt" d="m807.5092 318.85907l4.538086 -1.6517334l-4.538086 -1.6517334z" fill-rule="evenodd"></path><path fill="#000000" fill-opacity="0.0" d="m476.8714 266.81366l10.331177 0l0 50.393677l326.29877 0" fill-rule="nonzero"></path><path stroke="#000000" stroke-width="1.0" stroke-linejoin="round" stroke-linecap="butt" d="m476.8714 266.81366l10.331146 0l0 50.393677l320.2988 0" fill-rule="evenodd"></path><path fill="#000000" stroke="#000000" stroke-width="1.0" stroke-linecap="butt" d="m807.50134 318.85907l4.538086 -1.6517334l-4.538086 -1.6517334z" fill-rule="evenodd"></path><path fill="#000000" fill-opacity="0.0" d="m717.3989 266.81366l8.039307 0l0 50.393677l88.05524 0" fill-rule="nonzero"></path><path stroke="#000000" stroke-width="1.0" stroke-linejoin="round" stroke-linecap="butt" d="m717.3989 266.81366l8.039307 0l0 50.393677l82.055176 0" fill-rule="evenodd"></path><path fill="#000000" stroke="#000000" stroke-width="1.0" stroke-linecap="butt" d="m807.4934 318.85907l4.538147 -1.6517334l-4.538147 -1.6517334z" fill-rule="evenodd"></path><path fill="#d0e0e3" d="m853.8845 509.6168l0 0c0 -12.802551 27.236572 -23.181091 60.834656 -23.181091l0 0c33.598022 0 60.834656 10.37854 60.834656 23.181091l0 0c0 12.802582 -27.236633 23.181122 -60.834656 23.181122l0 0c-33.598083 0 -60.834656 -10.37854 -60.834656 -23.181122z" fill-rule="nonzero"></path><path stroke="#76a5af" stroke-width="1.0" stroke-linejoin="round" stroke-linecap="butt" d="m853.8845 509.6168l0 0c0 -12.802551 27.236572 -23.181091 60.834656 -23.181091l0 0c33.598022 0 60.834656 10.37854 60.834656 23.181091l0 0c0 12.802582 -27.236633 23.181122 -60.834656 23.181122l0 0c-33.598083 0 -60.834656 -10.37854 -60.834656 -23.181122z" fill-rule="nonzero"></path><path fill="#000000" d="m890.8442 511.64053l0 -5.53125l0.6875 0q0.3125 0.0625 0.03125 0.25l0 1.8125l2.53125 0l0 0.6875l-2.53125 0l0 2.78125l3.25 0l0 0.6875305l-6.78125 0l0 -0.6875305l2.8125 0zm8.96875 -3.75q-0.53125 3.125 -1.28125 3.875q-0.40625 0.40628052 -0.84375 0.40628052q-0.5 0 -0.78125 -0.28128052q-0.75 -0.75 -0.75 -1.875q0 -1.375 0.96875 -2.34375q1.0625 -1.0625 2.59375 -1.0625q1.375 0 2.15625 0.78125q0.875 0.875 0.875 2.0625q0 1.28125 -0.8125 2.09375q-0.53125 0.5312805 -1.625 1.0312805l-0.65625 -0.6562805q1.09375 -0.34375 1.71875 -0.96875q0.59375 -0.59375 0.59375 -1.4375q0 -1.0 -0.65625 -1.65625q-0.65625 -0.65625 -2.0625 -0.59375l0.5625 0.28125q0.375 0.15625 0 0.34375zm-0.71875 -0.59375q-0.8125 0.1875 -1.40625 0.78125q-0.8125 0.8125 -0.8125 2.0q0 0.71875 0.46875 1.1875q0.09375 0.09375 0.28125 0.09375q0.1875 0 0.40625 -0.21875q0.71875 -0.71875 1.0625 -3.84375zm12.0 0.5625q0.03125 1.125 -0.625 1.125l-1.1875 0q-0.5625 0 -0.5625 -0.53125l0 -2.65625l0.59375 0q0.25 0.03125 0.03125 0.1875l0 1.0l1.25 -0.625l0.34375 0.5q0.125 0.1875 -0.125 0.15625l-1.46875 0.53125l0 0.59375q0 0.25 0.21875 0.25l0.6875 0q0.1875 0 0.1875 -0.1875l0.03125 -0.5l0.625 0.15625zm-5.375 2.96875q0.1875 -1.125 -0.65625 -2.09375l0.625 -2.09375l-0.90625 0l0 6.3437805l-0.625 0l0 -6.8437805l1.65625 0l0.09375 -0.15625l0.5625 0.34375q0.09375 0.0625 -0.0625 0.15625l-0.75 2.15625q0.96875 1.25 0.625 2.625q-0.09375 0.375 -0.59375 0.375l-0.59375 0l-0.0625 -0.59375l0.46875 0q0.1875 0 0.21875 -0.21875zm1.5625 -4.03125l1.0625 0l0 0.59375l-1.0625 0l0 1.03125q0.53125 -0.125 1.09375 -0.3125l0.125 0.53125l-2.0625 0.59375q-0.0625 0.15625 -0.125 0.0625l-0.25 -0.625l0.59375 -0.125l0 -2.75l0.59375 0q0.25 0.03125 0.03125 0.1875l0 0.8125zm0.9375 2.125l0.625 0.15625q0.28125 0.09375 -0.0625 0.1875l-0.1875 0.40625l1.90625 0l0 3.2500305l-0.625 0l0 -0.3125l-2.40625 0l0 0.375l-0.625 0l0 -3.3125305l1.1875 0l0.1875 -0.75zm-0.75 1.9375l2.40625 0l0 -0.6875l-2.40625 0l0 0.6875zm0 1.2500305l2.40625 0l0 -0.7500305l-2.40625 0l0 0.7500305zm7.6875 -4.5625305l0.375 0.65625l1.25 0l0.25 -0.6875l-3.8125 0l0 2.84375q0 1.4375 -0.71875 2.6250305l-0.53125 -0.46875q0.625 -0.9687805 0.625 -2.3437805l0 -4.15625l5.9375 0l0 1.5l-1.28125 0l0.40625 0.1875q0.125 0.125 -0.09375 0.15625l-0.1875 0.34375l1.3125 0l0 2.03125l-5.0 0l0 -2.03125l1.1875 0l-0.28125 -0.375l0.5625 -0.28125zm2.90625 2.3125l0 -0.46875l-1.5625 0l0 0.46875l1.5625 0zm-3.75 0l1.5625 0l0 -0.46875l-1.5625 0l0 0.46875zm0.625 3.1562805l-0.625 0l0 -2.4062805l3.84375 0l0 2.3125305l-0.625 0l0 -0.28125l-2.59375 0l0 0.375zm2.59375 -0.75l0 -0.46878052l-2.59375 0l0 0.46878052l2.59375 0zm-4.3125 -5.2500305l4.6875 0l0 -0.5l-4.6875 0l0 0.5zm1.09375 2.0l1.5625 0l0 -0.4375l-1.5625 0l0 0.4375zm2.1875 0l1.5625 0l0 -0.4375l-1.5625 0l0 0.4375zm-1.5625 2.40625l2.59375 0l0 -0.4375l-2.59375 0l0 0.4375zm9.90625 0.5q-1.46875 0 -2.4375 -0.9375l0.40625 -0.53125q0.84375 0.8125 2.03125 0.78125l1.71875 0l0 0.6875l-1.71875 0zm-4.46875 0.5937805q-0.09375 -1.6250305 -0.09375 -2.7812805q0 -1.40625 0.34375 -3.34375l0.625 0.15625q0.34375 0.0625 0.03125 0.28125q-0.3125 1.8125 -0.3125 2.90625q0 1.21875 0.125 2.7187805l-0.71875 0.0625zm5.78125 -4.6250305q-1.34375 -0.03125 -3.5 0.1875l0 -0.65625q2.25 -0.21875 3.5 -0.1875l0 0.65625zm8.1875 5.0312805q-2.09375 -0.5 -2.8125 -2.0312805q-0.375 1.5937805 -2.5625 2.1250305l-0.1875 -0.59375q1.96875 -0.43753052 2.21875 -1.7812805l-2.0625 0q-0.09375 1.34375 -0.9375 2.2187805l-0.4375 -0.5q0.75 -0.7187805 0.75 -1.9687805l0 -3.0625l5.53125 0l0 2.0l-0.625 0l0 -0.1875l-4.28125 0l0 0.90625l2.125 0l0 -0.71875l0.59375 0q0.25 0.03125 0.03125 0.1875l0 0.53125l2.65625 0l0 0.59375l-2.34375 0q0.4375 1.15625 2.59375 1.6250305l-0.25 0.65625zm-0.125 -6.7187805l0 0.59375l-6.28125 0l0 -0.59375l6.28125 0zm-1.0 1.71875l-4.28125 0l0 0.625l4.28125 0l0 -0.625zm6.21875 4.2187805q0.5 -0.0625 0.84375 -0.40628052q0.375 -0.375 0.375 -1.0q0 -0.6875 -0.40625 -1.09375q-0.40625 -0.40625 -1.28125 -0.40625q-1.03125 0 -1.59375 0.40625q-0.53125 0.375 -1.375 1.34375l-0.53125 -0.46875q2.25 -2.25 3.40625 -3.75q-1.03125 0.125 -2.0625 0.21875l-0.21875 -0.71875q1.53125 0 2.71875 -0.15625l0.28125 -0.125l0.34375 0.34375q0.34375 0.3125 -0.15625 0.40625q-0.9375 1.0625 -1.875 2.09375q0.65625 -0.15625 1.09375 -0.15625q1.1875 0 1.75 0.5625q0.5625 0.5625 0.5625 1.4375q0 0.90625 -0.5 1.4062805q-0.75 0.75 -1.90625 0.75q-1.09375 0 -1.59375 -0.5q-0.40625 -0.40628052 -0.40625 -0.9687805q0 -0.375 0.28125 -0.65625q0.3125 -0.3125 0.71875 -0.3125q0.5625 0 0.9375 0.375q0.4375 0.4375 0.59375 1.3750305zm-0.625 0.09375q-0.09375 -0.8125305 -0.375 -1.0937805q-0.21875 -0.21875 -0.4375 -0.21875q-0.25 0 -0.375 0.125q-0.15625 0.15625 -0.15625 0.34375q0 0.28125 0.25 0.53125q0.3125 0.31253052 0.8125 0.31253052q0.125 0 0.28125 0z" fill-rule="nonzero"></path><path fill="#000000" fill-opacity="0.0" d="m914.7192 444.46194l0 20.986664l0.06298828 0l0 20.99759" fill-rule="nonzero"></path><path stroke="#000000" stroke-width="1.0" stroke-linejoin="round" stroke-linecap="butt" d="m914.7192 444.46194l0 20.986664l0.06298828 0l0 14.997589" fill-rule="evenodd"></path><path fill="#000000" stroke="#000000" stroke-width="1.0" stroke-linecap="butt" d="m913.13043 480.4462l1.6517334 4.538086l1.6517334 -4.538086z" fill-rule="evenodd"></path></g></svg>

